<svg xmlns="http://www.w3.org/2000/svg" version="1.0" viewBox="0 0 700 222">
  <defs/>
  <path fill="currentcolor" d="M245.5 1.3c-11.8 3.6-21.9 14-31.5 32.2-5.6 10.7-9.3 24.6-8.8 33.7l.3 6.8-3.9 2.6c-5.1 3.5-18 9.4-20.4 9.4-1.1 0-2.5.7-3.2 1.5-2 2.4.6 4.8 4.4 3.9 4.1-.8 12.9-4.9 19.2-8.9l5-3.2 3.7 3.3c3.2 3 4.3 3.4 9.2 3.4 6.3 0 14.1-3.1 21.6-8.5 2.7-1.9 5.3-3.5 5.9-3.5.5 0 1.6 1.3 2.5 2.9.8 1.6 2.9 4 4.7 5.2 2.8 2 4.4 2.3 11.8 2.3 7.3 0 9.3-.4 14.2-2.9 6.6-3.2 9.3-5.8 8.5-8-.9-2.2-3.7-1.8-6.6.9-7.7 7-20.9 7.4-28.3.8-2.9-2.5-2.1-4.6 3.3-9 7-5.7 10.8-11 10.9-15 0-3.9-3.1-5.8-8.2-4.8-5.9 1.1-12.8 10.5-12.8 17.4 0 3.9-.3 4.3-5.5 7.6-12.8 8.3-21.1 10.9-26.8 8.7-4.3-1.7-3.1-4.2 4.8-10.8 12.5-10.5 29.3-31.7 36.1-45.6 5.6-11.5 4.3-21.7-2.9-21.7-1.3 0-2.7-.4-3.2-.8-.6-.5-2.3-.5-4 .1zm7.3 5.9c4.7 4.7-4.2 22.1-21.9 43.3-7.3 8.7-19.3 19.8-20.3 18.8-2.7-2.7 2.8-25 8.8-35.3 6.2-10.7 17.3-23.4 23.1-26.4 3.6-1.9 8.6-2.1 10.3-.4zM263 52.5c0 2-7.8 10.5-9.6 10.5-2.5 0-1.5-3.5 2.2-7.8 3.5-4.2 7.4-5.6 7.4-2.7zM361.2 2.3c-7.2 2-19.6 15.4-27.5 29.8-5.2 9.5-7 16.5-7.1 28.8l-.1 11.6-6.7 4.5c-3.7 2.5-9.6 5.5-13 6.8-9.9 3.7-10.8 4.1-10.8 5.1 0 2.5 3.9 3.1 8.7 1.5 5.3-1.8 17.2-8.2 21.6-11.7l2.8-2.2 3.3 4c3.3 3.9 3.4 3.9 9.7 3.8 10.6-.3 20.1-6.6 25.7-17.1 2.6-4.9 3.2-7.1 3.2-12.4 0-7-1.6-9.8-5.8-9.8-3.4 0-3.6-2-.5-5.3 3.5-3.9 6.9-9.3 10.6-16.9 3.6-7.6 3.9-17 .5-19.2-3.4-2.1-9.7-2.6-14.6-1.3zm10.6 4.9c3.4 3.4 0 13.2-9.3 26.8-10.6 15.6-28.2 35-30.4 33.6-1.6-1-1.3-11.9.4-18.8 2-7.5 7.9-18.9 13.9-26.7 4.9-6.3 12.8-13.8 16.1-15.2 3-1.2 7.9-1.1 9.3.3zm-6 43c2.7 2.7-.3 12.7-5.7 19-4.8 5.6-13.2 10.8-17.4 10.8-3.4 0-8.7-3.1-8.7-5.1 0-1.4 18.7-19.6 23.5-23 4.4-3.1 6.5-3.5 8.3-1.7zM411.5 37.4c-3 .9-5 2.5-7.9 6.4-2.3 3-4.7 5.2-5.8 5.2-4.7 0-14.3 8.7-16.7 15.1-.7 1.8-1.7 4.2-2.2 5.1-2.7 5.2.6 14.7 6.1 17.5 6.2 3.2 15.6-.4 24.4-9.1L415 72h8.4c8.8 0 17.1-1.6 22.4-4.4 6.4-3.3 6.8-1.6 1.2 5.6-4 5-5 9.3-2.3 9.3.7 0 4.1-2.7 7.5-6 12.2-11.8 23-19.2 32.8-22.5 7.2-2.4 14.3-2.4 14.8.1.2.9-1.6 5.6-3.8 10.4-5.2 11.2-5.2 15.8-.1 19.2 7.7 5.2 26.9 1.7 43.6-8 10.4-6 24.2-18.6 23.2-21.1-1.1-2.7-3.4-1.8-8.9 3.5-12.4 12-27.6 20.2-40.9 22.1-9.7 1.5-15.2.4-15.7-3-.3-2.2.2-3.8 5-13.7 1-2.2 2.1-5.8 2.5-8.1.5-3.6.2-4.3-2.2-6.2-6.1-4.8-20.5-1.7-33.1 7.3-8.2 5.8-9.2 3.8-2.3-4.3 3.3-3.7 3.7-6 1.3-6.9-1.2-.4-2.9.8-5.8 3.9-10.6 11.7-19.7 16.1-37.8 18.2-4.3.5-4.8.4-4.8-1.4 0-1.1 1.1-3.7 2.4-5.8 3.7-5.7 5.2-13.2 3.6-17.2-2.3-5.4-7.8-7.6-14.5-5.6zM421 44c1.4 2.6-.4 9.8-4.1 16.5-2.3 4.1-3.2 5-5.5 5-3.4 0-7.4-5.2-7.4-9.6 0-3.4 3.3-9.7 6.3-12.1 3.1-2.5 9.3-2.4 10.7.2zm-21.8 13.3c-.4 3.7 2 7.8 6.4 11.2l3.7 2.9-3.4 2.9c-10.9 9.3-18.2 10.9-21.4 4.6-1.3-2.4-1.3-3.7-.4-7.6 1.6-6.2 3.3-9 8.3-13.6 4.7-4.3 7.2-4.5 6.8-.4zM4.8 131.7l-4.8.4v86.6l5.2.6c2.9.2 5.7.3 6.1 0 .4-.3.8-15 .7-32.6-.1-17.7-.1-32.8-.1-33.5.1-2.3 2.1-1.2 5.3 3.2 8.4 11.2 23.2 29.6 23.9 29.6.9 0 12.8-14.7 21.4-26.3 3.3-4.5 6.1-7.5 6.6-7s1 15.7 1.1 33.8l.3 33h11l.3-43.4c.1-23.9-.1-43.8-.5-44.1-.5-.4-3.1-.5-6-.2l-5.1.4-7.9 10C48.7 159.7 41.8 168 41 168c-.4 0-1.6-1.2-2.6-2.8-3.1-4.7-27.6-34.2-28.2-34-.4.1-2.8.3-5.4.5zM141.6 133.2c-.9 1.2-1.6 2.8-1.6 3.5 0 .7-.4 2.1-.9 3.1-1 1.9-6 13.6-7.1 16.7-.9 2.2-5.8 13.1-7.1 15.7-.5 1-.9 2.2-.9 2.8 0 .5-1.2 3.5-2.6 6.7-1.4 3.2-3 6.7-3.4 7.8-.4 1.1-2 4.7-3.5 8s-3.1 6.9-3.5 8c-.4 1.1-1.7 4.1-2.9 6.7-3.2 7.2-3 7.6 3.5 7.4 5.8-.1 6-.2 8.2-5.6.6-1.4 2.2-5.1 3.6-8.2 1.4-3.1 2.6-6.3 2.6-7 0-.7.8-2.2 1.8-3.3 1.6-1.9 2.7-2 20.5-1.7 16.7.3 18.9.5 19.3 2 .6 1.9 3.9 9.8 7.7 18.2l2.5 5.6 6.1.1c3.5.1 6.1-.2 6.1-.8 0-.6-1.3-3.6-2.9-6.7-3.2-6.2-8.1-17-8.1-17.7 0-.2-1.4-3.5-3.1-7.2-1.7-3.8-3.7-8.2-4.4-9.8-.7-1.7-2.5-5.7-4-9-2.5-5.6-4.8-10.6-7.9-18-.8-1.7-2.2-5-3.3-7.5-1.1-2.5-2.8-6.2-3.6-8.3-1.5-3.4-2-3.7-5.6-3.7-3 0-4.4.6-5.5 2.2zm7.4 21.5c.6 1.6 1.4 3.7 1.9 4.8.5 1.1 1.7 3.8 2.6 6 1 2.2 3.1 6.8 4.7 10.3 1.6 3.5 2.7 6.6 2.4 6.9-.9.9-26 .3-26.9-.7-.5-.4-.2-1.8.6-3.1s2.5-4.9 3.7-7.9c3.7-9.3 4.2-10.4 5.1-12.2.5-1 .9-2.6.9-3.6 0-4.1 3.6-4.4 5-.5zM241 132c-.8.5-2.3 1-3.2 1-3.9 0-13.3 5.7-19.1 11.4-10.2 10-14.3 20.6-13.5 34.6.5 7.6 1.1 9.9 4.4 16.7 2.4 4.9 5.7 9.7 8.9 12.8 5.7 5.6 14.8 10.5 19.5 10.5 1.7 0 5.2.5 7.7 1.1 6.5 1.7 29.6-1.2 33.8-4.2.6-.4 1.8-.8 2.9-1 1.6-.3 1.9-1.4 2-7.2.1-3.8-.2-7.1-.6-7.3-.5-.3-2.2.6-3.8 2-1.7 1.3-4 2.7-5.2 3.1-1.3.3-3.2 1-4.3 1.5-6.9 2.9-19.7 3.9-27 1.9-18.6-4.8-29.7-22.7-25.1-40.4 4.2-15.8 18.3-26.5 35.1-26.5 6.5 0 19.6 3.7 25.3 7.2 3.9 2.4 4.5 1.6 4-6.3l-.3-5.3-5-1.8c-9.8-3.5-16.8-4.8-25.8-4.8-5.1 0-9.9.5-10.7 1zM344.3 132.2c-1.6 2.6-3.3 6.1-3.3 6.9 0 .5-1.2 3.4-2.6 6.6-1.4 3.2-3 6.7-3.4 7.8-1.3 3.4-4.2 9.8-6.1 13.9-1.1 2.2-1.9 4.3-1.9 4.8 0 .4-1.2 3.3-2.6 6.5-1.4 3.2-3 6.7-3.4 7.8-.4 1.1-1.7 4-2.8 6.5-1.1 2.5-3.4 8.1-5.2 12.5-1.8 4.4-3.9 8.9-4.7 10-2.4 3.6-1.6 4.2 4.9 4.1 6.7-.2 6.2.2 9.9-9.1 1.3-3.4 5.9-13.9 6.8-15.5.4-.8 1.3-1.5 2-1.4.6.1 9 .2 18.7.2l17.5.2 2.5 5.7c1.4 3.2 3.7 8.2 5 11.1 1.3 2.9 2.4 5.7 2.4 6.2 0 1.7 3.8 3 8.4 3 5.6 0 5.7-.6 1.5-9.7-3.2-6.8-5.2-11.2-8.4-18.8-1.8-4-2.9-6.5-8-18-1.5-3.3-3.4-7.6-4.2-9.5-.8-1.9-3-6.8-4.9-10.8-1.9-4-3.4-7.7-3.4-8.2 0-.4-.8-2.5-1.9-4.7-1-2.1-2.4-5-3-6.6-.9-2.3-1.6-2.7-5-2.7-2.2 0-4.3.6-4.8 1.2zm7.4 24.3c1.6 5 2.1 6.1 6.7 15.6 5.4 11.4 5.9 10.9-9.9 10.9-10.4 0-13.5-.3-13.5-1.3 0-.7.4-1.7.9-2.2.8-.9 6.2-13.8 10.1-24.3 1.7-4.3 3.9-3.8 5.7 1.3zM415.8 131.8c-.2.4-.1 20.3.2 44.2l.5 43.5h11l.1-18.5.1-18.5 6.2-.3 6.2-.3 6.2 6.3c3.5 3.5 6.9 7.6 7.7 9.3 2.2 4.4 12.9 20.3 14.3 21.2.6.4 4.2.8 7.9.9 6.4.3 6.7.2 5.8-1.6-.6-1-1.5-2.2-2-2.5-1-.6-9-12.2-9-13.1 0-1.6-10.3-15.7-14.3-19.5l-4.7-4.6 2.4-1.7c1.4-.9 3-1.6 3.5-1.6 1.3 0 5-4.9 6.7-8.9 2-4.9 1.8-15-.5-20.4-3.7-8.6-11.9-12.7-26.6-13.3-5.5-.3-12.6-.6-15.7-.8-3.2-.2-5.9-.1-6 .2zm30.1 12c5.6 2.8 7.6 6.4 7.5 13.3-.1 6.6-2 9.6-7.8 12.4-3 1.6-17.6 2.2-17.6.7-.1-7.4-.2-26-.1-27 .2-1.9 13.8-1.5 18 .6zM527.5 132.4c-15 4.4-26.2 15.7-31.3 31.7-1.9 5.8-1.5 20.6.7 26.7 5.8 15.8 18.6 26.8 33.6 28.8 20.1 2.7 35.3-1.4 46.2-12.4 7.9-8 12.6-19.7 12.6-31.2 0-20.1-13.3-37.5-33.2-43.6-5.5-1.7-22.8-1.7-28.6 0zm25.5 11.4c9.4 3.7 15.8 8.9 19.2 15.7 3.9 7.7 4.3 9.1 4.3 16.9 0 10.1-3 17-10.3 23.8-5.6 5.2-7.5 6.4-14 8.4-16 4.8-34-2.5-41.2-16.9-2.7-5.4-3-7-3-15.4 0-7.4.4-10.4 2.1-14 2.4-5.3 9-12.7 13.3-15.1 9.7-5.3 21.4-6.7 29.6-3.4zM619 131.9c-.4 5.6.1 86.5.5 87 .2.5 2.6.8 5.2.7l4.8-.1.1-33c.2-36.2.4-37.2 5.6-29.5 2.3 3.4 41.9 49.3 51.3 59.6 2.8 3.1 3.3 3.3 8.3 2.7l5.2-.6v-86.4l-5.1-.6c-2.9-.4-5.6-.4-6.1-.1-.6.4-.9 13.7-.7 34.2.3 24.9 0 33.7-.8 33.9-.7.3-2.5-1.3-4-3.4-1.5-2.1-5.1-6.6-8-9.8-4.8-5.6-19.1-22.2-38.9-45.4-8-9.3-8.3-9.5-12.8-9.7-2.5-.1-4.6.1-4.6.5z"/>
</svg>
