<svg xmlns="http://www.w3.org/2000/svg" id="Layer_1" x="0" y="0" version="1.1" viewBox="-379 181 200 200" xml:space="preserve"><defs/><style>.st0,.st1{fill:none;stroke:#000;stroke-miterlimit:10}.st1{stroke-width:2}</style><path id="XMLID_14_" d="M-365 365l63-64" class="st0"/><path id="XMLID_18_" d="M-256 261l63-64" class="st0"/><path d="M-278 260h1c3 1 5 3 6 6l-2 6v1l4 1h3c2 1 4 3 3 6v1c-1 2-3 4-5 3l-3-1v4l1 5 1 3c1 2 0 4-2 5l-2 1c-2 0-4-1-5-3l-1-4v-1 1l-2 4c0 2-3 3-5 2h-1c-2-1-3-3-3-5l2-6 1-2v-4l-3 1c-1 1-3 0-4-1-1-2-2-3-1-5 0-2 1-3 3-3l7-2v-1c-2-2-2-4-1-7s3-5 6-5h2z" class="st1"/><path d="M-279 275l-1 2 1 1 1-2-1-1zM-280 282l1 1 1-1-1-1-1 1zM-281 268l1-1-1-1-2 1 2 1zM-277 268l2-1-2-1-1 1 1 1z"/><g><path d="M-207 348c0 6-5 11-10 11s-9-5-9-12 4-9 9-9 10 3 10 10z" class="st1"/><path d="M-220 335s3 0 3 3c5 5 4 12 3 14" class="st1"/></g><g><path d="M-343 208l3 1-3 2-4-2 4-1m0-2c-4 0-7 3-7 3s3 4 7 4c3 0 6-4 6-4s-3-3-6-3zM-353 211l4 2 1 4-4-2-1-4m-1-2s-1 5 1 7c2 3 6 3 7 3s1-4-2-7c-2-3-6-3-6-3z"/></g></svg>
