<?xml version="1.0" encoding="utf-8"?>
<!-- Generator: Adobe Illustrator 19.0.0, SVG Export Plug-In . SVG Version: 6.00 Build 0)  -->
<svg version="1.1" id="Layer_1" xmlns="http://www.w3.org/2000/svg" xmlns:xlink="http://www.w3.org/1999/xlink" x="0px" y="0px"
	 viewBox="-379 181 200 200" style="enable-background:new -379 181 200 200;" xml:space="preserve">
<style type="text/css">
	.st0{fill:none;stroke:#000000;stroke-miterlimit:10;}
	.st1{fill:none;stroke:#000000;stroke-width:2;stroke-miterlimit:10;}
</style>
<line id="XMLID_14_" class="st0" x1="-365.3" y1="364.8" x2="-301.7" y2="301.2"/>
<line id="XMLID_18_" class="st0" x1="-256.3" y1="260.8" x2="-192.7" y2="197.2"/>
<g>
	<path class="st1" d="M-278.1,259.5c0.5,0.1,1,0.2,1.5,0.3c3,0.8,5.1,3.4,5.4,6.5c0.2,2.2-0.3,4.2-1.6,6c-0.1,0.1-0.2,0.3-0.3,0.4
		c1.3,0.3,2.6,0.7,3.9,1c1.1,0.3,2.2,0.5,3.2,0.8c2.3,0.6,3.7,2.8,3.1,5.2c-0.1,0.5-0.2,1-0.4,1.5c-0.6,2.2-2.8,3.4-5,2.8
		c-0.8-0.2-1.6-0.5-2.3-0.8c-0.1,0-0.3-0.1-0.5-0.1c0.1,0.9,0.1,1.8,0.2,2.7c0,0.3,0.1,0.7,0.1,1c0,1.7,0.7,3.3,1.2,4.9
		c0.4,1.2,0.8,2.3,1.1,3.5c0.4,2-0.7,4-2.6,4.8c-0.7,0.3-1.5,0.6-2.3,0.7c-1.9,0.2-3.6-1-4.2-2.8c-0.5-1.4-0.9-2.7-1.4-4.1
		c0-0.1-0.1-0.2-0.2-0.4c-0.1,0.2-0.1,0.2-0.1,0.3c-0.4,1.3-0.9,2.6-1.3,4c-0.8,2.5-3.2,3.6-5.6,2.7c-0.3-0.1-0.6-0.2-0.8-0.3
		c-2.2-0.9-3.3-3.2-2.6-5.4c0.6-1.8,1.3-3.7,1.8-5.5c0.2-0.8,0.3-1.6,0.4-2.4c0.1-1.1,0.2-2.3,0.3-3.5c-0.9,0.3-1.8,0.6-2.6,0.9
		c-1.7,0.5-3.5,0.1-4.4-1.3c-1-1.5-1.5-3.1-1.1-4.9c0.3-1.7,1.5-2.8,3.2-3.2c2.2-0.6,4.5-1.1,6.8-1.7c0.1,0,0.2-0.1,0.4-0.1
		c-0.1-0.2-0.2-0.4-0.4-0.5c-1.6-2.3-2-4.8-1.2-7.5c1-3,3.1-4.7,6.3-5.2c0.1,0,0.2-0.1,0.3-0.1
		C-279.3,259.5-278.7,259.5-278.1,259.5z"/>
	<path d="M-279,275.3c-0.7,0-1.2,0.5-1.2,1.2s0.5,1.2,1.2,1.2c0.7,0,1.2-0.6,1.2-1.2C-277.8,275.8-278.3,275.3-279,275.3z"/>
	<path d="M-280.2,281.9c0,0.7,0.5,1.2,1.2,1.2c0.7,0,1.2-0.5,1.2-1.2s-0.5-1.2-1.2-1.2C-279.7,280.7-280.2,281.3-280.2,281.9z"/>
	<path d="M-281.4,268c0.7,0,1.2-0.5,1.2-1.2s-0.6-1.2-1.2-1.2c-0.7,0-1.2,0.6-1.2,1.2C-282.6,267.5-282.1,268-281.4,268z"/>
	<path d="M-276.6,268c0.7,0,1.2-0.5,1.2-1.2s-0.6-1.2-1.2-1.2c-0.7,0-1.2,0.6-1.2,1.2S-277.2,268-276.6,268z"/>
</g>
<g>
	<path class="st1" d="M-207.5,347.5c0,6.3-4.2,11.4-9.3,11.4c-5.1,0-9.3-5.1-9.3-11.4s4.4-9.3,9.6-9.3S-207.5,341.2-207.5,347.5z"/>
	<path class="st1" d="M-220.4,335c0,0,3.6,0,3.8,3.1c4.5,4.5,3.4,12.1,2.6,13.8"/>
</g>
<g>
	<g>
		<path d="M-343.4,207.6c1.3,0,2.7,0.8,3.6,1.6c-1,0.8-2.3,1.6-3.6,1.6c-1.3,0-2.7-0.8-3.6-1.6C-346,208.4-344.7,207.6-343.4,207.6
			 M-343.4,205.6c-3.6,0-6.5,3.6-6.5,3.6s2.9,3.6,6.5,3.6c3.6,0,6.5-3.6,6.5-3.6S-339.8,205.6-343.4,205.6L-343.4,205.6z"/>
	</g>
	<g>
		<path d="M-352.7,211.4c1.2,0.3,2.7,0.8,3.5,1.8c0.8,1,1.1,2.5,1.1,3.8c-1.2-0.3-2.7-0.8-3.5-1.8
			C-352.4,214.1-352.7,212.6-352.7,211.4 M-354.5,209.1C-354.5,209.1-354.5,209.1-354.5,209.1c0,0-0.9,4.5,1.4,7.3
			c2.2,2.7,6.6,2.7,6.9,2.7c0,0,0,0,0,0s0.9-4.5-1.4-7.3C-349.8,209.2-354.2,209.1-354.5,209.1L-354.5,209.1z"/>
	</g>
</g>
</svg>
