<?xml version="1.0" encoding="utf-8"?>
<!-- Generator: Adobe Illustrator 19.0.0, SVG Export Plug-In . SVG Version: 6.00 Build 0)  -->
<svg version="1.1" id="Layer_1" xmlns="http://www.w3.org/2000/svg" xmlns:xlink="http://www.w3.org/1999/xlink" x="0px" y="0px"
	 viewBox="-199 201 200 200" style="enable-background:new -199 201 200 200;" xml:space="preserve">
<style type="text/css">
	.st0{fill:none;stroke:#000000;stroke-miterlimit:10;}
	.st1{fill:none;stroke:#000000;stroke-width:2;stroke-miterlimit:10;}
</style>
<line id="XMLID_14_" class="st0" x1="-185.3" y1="384.8" x2="-121.7" y2="321.2"/>
<line id="XMLID_18_" class="st0" x1="-76.3" y1="280.8" x2="-12.7" y2="217.2"/>
<g>
	<path class="st1" d="M-98.1,279.5c0.5,0.1,1,0.2,1.5,0.3c3,0.8,5.1,3.4,5.4,6.5c0.2,2.2-0.3,4.2-1.6,6c-0.1,0.1-0.2,0.3-0.3,0.4
		c1.3,0.3,2.6,0.7,3.9,1c1.1,0.3,2.2,0.5,3.2,0.8c2.3,0.6,3.7,2.8,3.1,5.2c-0.1,0.5-0.2,1-0.4,1.5c-0.6,2.2-2.8,3.4-5,2.8
		c-0.8-0.2-1.6-0.5-2.3-0.8c-0.1,0-0.3-0.1-0.5-0.1c0.1,0.9,0.1,1.8,0.2,2.7c0,0.3,0.1,0.7,0.1,1c0,1.7,0.7,3.3,1.2,4.9
		c0.4,1.2,0.8,2.3,1.1,3.5c0.4,2-0.7,4-2.6,4.8c-0.7,0.3-1.5,0.6-2.3,0.7c-1.9,0.2-3.6-1-4.2-2.8c-0.5-1.4-0.9-2.7-1.4-4.1
		c0-0.1-0.1-0.2-0.2-0.4c-0.1,0.2-0.1,0.2-0.1,0.3c-0.4,1.3-0.9,2.6-1.3,4c-0.8,2.5-3.2,3.6-5.6,2.7c-0.3-0.1-0.6-0.2-0.8-0.3
		c-2.2-0.9-3.3-3.2-2.6-5.4c0.6-1.8,1.3-3.7,1.8-5.5c0.2-0.8,0.3-1.6,0.4-2.4c0.1-1.1,0.2-2.3,0.3-3.5c-0.9,0.3-1.8,0.6-2.6,0.9
		c-1.7,0.5-3.5,0.1-4.4-1.3c-1-1.5-1.5-3.1-1.1-4.9c0.3-1.7,1.5-2.8,3.2-3.2c2.2-0.6,4.5-1.1,6.8-1.7c0.1,0,0.2-0.1,0.4-0.1
		c-0.1-0.2-0.2-0.4-0.4-0.5c-1.6-2.3-2-4.8-1.2-7.5c1-3,3.1-4.7,6.3-5.2c0.1,0,0.2-0.1,0.3-0.1C-99.3,279.5-98.7,279.5-98.1,279.5z"
		/>
	<path d="M-99,295.3c-0.7,0-1.2,0.5-1.2,1.2c0,0.7,0.5,1.2,1.2,1.2c0.7,0,1.2-0.6,1.2-1.2C-97.8,295.8-98.3,295.3-99,295.3z"/>
	<path d="M-100.2,301.9c0,0.7,0.5,1.2,1.2,1.2c0.7,0,1.2-0.5,1.2-1.2c0-0.7-0.5-1.2-1.2-1.2C-99.7,300.7-100.2,301.3-100.2,301.9z"
		/>
	<path d="M-101.4,288c0.7,0,1.2-0.5,1.2-1.2c0-0.7-0.6-1.2-1.2-1.2c-0.7,0-1.2,0.6-1.2,1.2C-102.6,287.5-102.1,288-101.4,288z"/>
	<path d="M-96.6,288c0.7,0,1.2-0.5,1.2-1.2c0-0.7-0.6-1.2-1.2-1.2c-0.7,0-1.2,0.6-1.2,1.2C-97.8,287.4-97.2,288-96.6,288z"/>
</g>
<g>
	<path class="st1" d="M-27.5,367.5c0,6.3-4.2,11.4-9.3,11.4s-9.3-5.1-9.3-11.4s4.4-9.3,9.6-9.3S-27.5,361.2-27.5,367.5z"/>
	<path class="st1" d="M-40.4,355c0,0,3.6,0,3.8,3.1c4.5,4.5,3.4,12.1,2.6,13.8"/>
</g>
<path d="M-151.7,223.3l-4-4l-0.9,3.6c-1-0.5-2.3-0.3-3.2,0.5c-0.9,0.9-1,2.2-0.5,3.2l-3.6,0.9l4,4l0.9-3.6c1,0.5,2.3,0.3,3.2-0.5
	c0.9-0.9,1-2.2,0.5-3.2L-151.7,223.3z"/>
</svg>
