<?xml version="1.0" encoding="utf-8"?>
<!-- Generator: Adobe Illustrator 19.0.0, SVG Export Plug-In . SVG Version: 6.00 Build 0)  -->
<svg version="1.1" id="Layer_1" xmlns="http://www.w3.org/2000/svg" xmlns:xlink="http://www.w3.org/1999/xlink" x="0px" y="0px"
	 viewBox="-199 201 200 200" style="enable-background:new -199 201 200 200;" xml:space="preserve">
<style type="text/css">
	.st0{fill:none;stroke:#000000;stroke-miterlimit:10;}
	.st1{fill:none;stroke:#000000;stroke-width:2;stroke-miterlimit:10;}
</style>
<line id="XMLID_14_" class="st0" x1="-185.3" y1="384.8" x2="-121.7" y2="321.2"/>
<line id="XMLID_18_" class="st0" x1="-76.3" y1="280.8" x2="-12.7" y2="217.2"/>
<g>
	<path id="XMLID_68_" class="st1" d="M-98.4,313c0.7-0.1,2.2-0.2,3.5-0.5c2-0.4,3.8-1.2,5.2-2.8c0.7-0.8,1.1-1.7,0.9-2.8
		c-0.6-3.4-1.1-6.7-1.6-10.1c-0.3-2.1-1.2-4.1-2.8-5.5c-2.6-2.2-5.5-2.9-8.7-1.8c-3.2,1.1-5.1,3.4-5.8,6.7c-0.6,3.3-1.1,6.7-1.7,10
		c-0.3,1.6,0.2,2.9,1.4,4c0.5,0.4,1.1,0.8,1.7,1.1C-104,312.6-101.5,312.9-98.4,313z"/>
	<circle cx="-99.2" cy="294.2" r="1.1"/>
	<circle cx="-94.5" cy="297.4" r="1.1"/>
	<circle cx="-93.4" cy="303.8" r="1.1"/>
</g>
<path d="M-149,255.4l-2.8,2.8c-0.4,0.4-1,0.4-1.4,0c-0.4-0.4-0.4-1,0-1.4l2.8-2.8L-149,255.4z M-144.7,241.2c2.3-2.3,6.1-2.3,8.5,0
	s2.3,6.1,0,8.5l-7.4,7.4c-0.3,0.3-0.7,0.4-1.1,0.4c-0.4,0-0.8-0.2-1.1-0.4l-6.4-6.4c-0.3-0.3-0.4-0.7-0.4-1.1c0-0.4,0.2-0.8,0.4-1.1
	L-144.7,241.2z M-144.7,255.4l7.1-7.1c1.6-1.6,1.6-4.1,0-5.7s-4.1-1.6-5.7,0l-7.1,7.1L-144.7,255.4z"/>
<path d="M-39.5,346.6l2.8-2.8c0.4-0.4,1-0.4,1.4,0c0.4,0.4,0.4,1,0,1.4l-2.8,2.8L-39.5,346.6z M-43.8,360.8c-2.3,2.3-6.1,2.3-8.5,0
	c-2.3-2.3-2.3-6.1,0-8.5l7.4-7.4c0.3-0.3,0.7-0.4,1.1-0.4c0.4,0,0.8,0.2,1.1,0.4l6.4,6.4c0.3,0.3,0.4,0.7,0.4,1.1
	c0,0.4-0.2,0.8-0.4,1.1L-43.8,360.8z M-43.8,346.6l-7.1,7.1c-1.6,1.6-1.6,4.1,0,5.7c1.6,1.6,4.1,1.6,5.7,0l7.1-7.1L-43.8,346.6z"/>
</svg>
