<?xml version="1.0" encoding="utf-8"?>
<!-- Generator: Adobe Illustrator 19.0.0, SVG Export Plug-In . SVG Version: 6.00 Build 0)  -->
<svg version="1.1" id="Layer_1" xmlns="http://www.w3.org/2000/svg" xmlns:xlink="http://www.w3.org/1999/xlink" x="0px" y="0px"
	 viewBox="0 0 200 200" style="enable-background:new 0 0 200 200;" xml:space="preserve">
<style type="text/css">
	.st0{fill:none;stroke:#000000;stroke-miterlimit:10;}
</style>
<path d="M105.9,91.5l4.1,3.4v5.1l-10,8.3l-10-8.3v-5.1l4.1-3.4l5.9,3.9C100,95.4,105.9,91.5,105.9,91.5z M106,89l-6,4l-6-4l-6,5v7
	l12,10l12-10v-7L106,89z"/>
<line id="XMLID_14_" class="st0" x1="13.7" y1="183.8" x2="77.3" y2="120.2"/>
<line id="XMLID_18_" class="st0" x1="122.7" y1="79.8" x2="186.3" y2="16.2"/>
<path id="XMLID_15_" d="M49.8,38c3.2,0,5,3.5,5.7,5c0.8-1.5,2.5-5,5.7-5c2.1,0,4.3,1.3,4.3,4.2c0,3.4-4.7,7.9-10,13
	c-5.3-5.2-10-9.6-10-13C45.5,39.5,47.5,38,49.8,38z M49.8,36c-3.2,0-6.3,2.2-6.3,6.2c0,4.7,5.6,9.4,12,15.8c6.4-6.4,12-11.1,12-15.8
	c0-4-3.1-6.2-6.3-6.2c-2.2,0-4.4,1-5.7,3.2C54.2,37,52,36,49.8,36z"/>
<path id="XMLID_20_" d="M150.2,162c-3.2,0-5-3.5-5.7-5c-0.8,1.5-2.5,5-5.7,5c-2.1,0-4.3-1.3-4.3-4.2c0-3.4,4.7-7.9,10-13
	c5.3,5.2,10,9.6,10,13C154.5,160.5,152.5,162,150.2,162z M150.2,164c3.2,0,6.3-2.2,6.3-6.2c0-4.7-5.6-9.4-12-15.8
	c-6.4,6.4-12,11.1-12,15.8c0,4,3.1,6.2,6.3,6.2c2.2,0,4.4-1,5.7-3.2C145.8,163,148,164,150.2,164z"/>
</svg>
