<?xml version="1.0" encoding="utf-8"?>
<!-- Generator: Adobe Illustrator 19.0.0, SVG Export Plug-In . SVG Version: 6.00 Build 0)  -->
<svg version="1.1" id="Layer_1" xmlns="http://www.w3.org/2000/svg" xmlns:xlink="http://www.w3.org/1999/xlink" x="0px" y="0px"
	 viewBox="-199 201 200 200" style="enable-background:new -199 201 200 200;" xml:space="preserve">
<style type="text/css">
	.st0{fill:none;stroke:#000000;stroke-miterlimit:10;}
</style>
<line id="XMLID_14_" class="st0" x1="-185.3" y1="384.8" x2="-121.7" y2="321.2"/>
<line id="XMLID_18_" class="st0" x1="-76.3" y1="280.8" x2="-12.7" y2="217.2"/>
<path d="M-30.9,370.1l1.5,8.9l-7.4-4.6l-7.4,4.6l1.5-8.9l-6.1-5.6l8.3-1.4l3.7-8.2l3.7,8.2l8.3,1.4
	C-24.9,364.5-30.9,370.1-30.9,370.1z M-32.1,375l-0.9-5.6l3.9-3.6l-5.4-0.9l-2.3-5.1l-2.3,5.1l-5.4,0.9l3.9,3.6l-0.9,5.6l4.7-2.9
	C-36.9,372.1-32.1,375-32.1,375z"/>
<polygon points="-155.6,226.5 -155.1,229.7 -157.8,228 -160.5,229.7 -160,226.5 -162.2,224.5 -159.1,224 -157.8,221.2 -156.6,224 
	-153.4,224.5 "/>
<path d="M-98,308.8h-7c-0.6,0-1-0.4-1-1c0-0.3,0.1-0.5,0.3-0.7c0.2-0.2,0.4-0.3,0.7-0.3h5v-5h6v5h5c0.3,0,0.5,0.1,0.7,0.3
	c0.2,0.2,0.3,0.4,0.3,0.7c0,0.6-0.5,1-1,1h-7v-5h-2V308.8z M-102,305.8h-3c-0.6,0-1-0.4-1-1s0.4-1,1-1h3V305.8z M-88,304.8
	c0,0.6-0.4,1-1,1h-3v-2h3C-88.4,303.8-88,304.3-88,304.8z M-102,302.8h-3c-0.6,0-1-0.4-1-1v-3l9-8c1.3,1.2,2.6,2.3,3.9,3.5l1.1,1
	c1.3,1.2,2.6,2.3,3.9,3.5v3c0,0.6-0.4,1-1,1h-3v-2h2v-1.1l-7-6.2l-7,6.2v1.1h2C-102,300.8-102,302.8-102,302.8z M-97,296.8
	c1.1,0,2,0.9,2,2s-0.9,2-2,2s-2-0.9-2-2S-98.1,296.8-97,296.8z M-97,286.8c0,0,9,7.9,11.7,10.2c0.4,0.4,0.5,1,0.1,1.4
	s-1,0.4-1.4,0.1c-2.4-2.1-10.3-9.1-10.3-9.1s-7.9,6.9-10.3,9.1c-0.4,0.4-1,0.3-1.4-0.1s-0.3-1,0.1-1.4C-106,294.7-97,286.8-97,286.8
	z M-90,288.8h3v5.1l-3-2.6V288.8z"/>
</svg>
