<?xml version="1.0" encoding="utf-8"?>
<!-- Generator: Adobe Illustrator 19.0.0, SVG Export Plug-In . SVG Version: 6.00 Build 0)  -->
<svg version="1.1" id="Layer_1" xmlns="http://www.w3.org/2000/svg" xmlns:xlink="http://www.w3.org/1999/xlink" x="0px" y="0px"
	 viewBox="-199 201 200 200" style="enable-background:new -199 201 200 200;" xml:space="preserve">
<style type="text/css">
	.st0{fill:none;stroke:#000000;stroke-miterlimit:10;}
</style>
<line id="XMLID_14_" class="st0" x1="-185.3" y1="384.8" x2="-121.7" y2="321.2"/>
<line id="XMLID_18_" class="st0" x1="-76.3" y1="280.8" x2="-12.7" y2="217.2"/>
<path d="M-105.6,302.9c-0.9-0.8-1.4-2-1.4-3.2c0-1.4,0.6-2.6,1.5-3.3l0,0c-1-3.1,2.7-6.2,4.5-7.3c-0.2,1.5,0,2.7,1.5,3.8
	c2.9,2,8.5,2.6,8.5,7.2c0,1.2-0.6,2.3-1.5,3.1l-0.7,5h-1.7l-0.8,5h-6.7l-0.8-5h-1.7C-104.9,308-105.6,302.9-105.6,302.9z M-94.6,304
	h-8.8l0.3,2h1.7l0.8,5h3.3l0.8-5h1.6L-94.6,304z M-104.4,298c-0.3,0.4-0.5,0.8-0.6,1.4c-0.2,1.3,0.8,2.6,2,2.7h8.7
	c0.8-0.6,1.4-1.4,1.3-2.4c-0.2-3.5-6.9-3-9.4-6.9c-4.2,4.9,3.3,6.3,7.3,7.3l0.1,0C-96.7,299.9-102.1,299.8-104.4,298z"/>
<path d="M-50.2,348.8l-2.8-2.8c-0.4-0.4-0.4-1,0-1.4c0.4-0.4,1-0.4,1.4,0l2.8,2.8L-50.2,348.8z M-36,353c2.3,2.3,2.3,6.1,0,8.5
	c-2.3,2.3-6.1,2.3-8.5,0l-7.4-7.4c-0.3-0.3-0.4-0.7-0.4-1.1c0-0.4,0.2-0.8,0.4-1.1l6.4-6.4c0.3-0.3,0.7-0.4,1.1-0.4
	c0.4,0,0.8,0.2,1.1,0.4L-36,353z M-50.2,353l7.1,7.1c1.6,1.6,4.1,1.6,5.7,0c1.6-1.6,1.6-4.1,0-5.7l-7.1-7.1L-50.2,353z M-38.7,359.5
	L-38.7,359.5c-1.2,0.8-2.8,0.7-3.9-0.3l-6.2-6.2l0.7-0.7l6.2,6.2c0.7,0.7,1.7,0.8,2.5,0.3c0.2-0.2,0.5-0.1,0.7,0.1
	C-38.5,359-38.5,359.3-38.7,359.5L-38.7,359.5z"/>
<path d="M-147.8,253.2l2.8,2.8c0.4,0.4,0.4,1,0,1.4c-0.4,0.4-1,0.4-1.4,0l-2.8-2.8L-147.8,253.2z M-162,249c-2.3-2.3-2.3-6.1,0-8.5
	s6.1-2.3,8.5,0l7.4,7.4c0.3,0.3,0.4,0.7,0.4,1.1c0,0.4-0.2,0.8-0.4,1.1l-6.4,6.4c-0.3,0.3-0.7,0.4-1.1,0.4c-0.4,0-0.8-0.2-1.1-0.4
	L-162,249z M-147.8,249l-7.1-7.1c-1.6-1.6-4.1-1.6-5.7,0c-1.6,1.6-1.6,4.1,0,5.7l7.1,7.1L-147.8,249z M-159.3,242.5L-159.3,242.5
	c1.2-0.8,2.8-0.7,3.9,0.3l6.2,6.2l-0.7,0.7l-6.2-6.2c-0.7-0.7-1.7-0.8-2.5-0.3c-0.2,0.2-0.5,0.1-0.7-0.1
	C-159.5,243-159.5,242.7-159.3,242.5L-159.3,242.5z"/>
</svg>
