<?xml version="1.0" encoding="utf-8"?>
<!-- Generator: Adobe Illustrator 19.0.0, SVG Export Plug-In . SVG Version: 6.00 Build 0)  -->
<svg version="1.1" id="Layer_1" xmlns="http://www.w3.org/2000/svg" xmlns:xlink="http://www.w3.org/1999/xlink" x="0px" y="0px"
	 viewBox="0 0 158.5 814.9" style="enable-background:new 0 0 158.5 814.9;" xml:space="preserve">
<g id="XMLID_10_">
	<path id="XMLID_2037_" d="M118.6,602.1c4.9-4.9,5.3-12.6,0.1-16.3c-4.3-3.1-2.5-4.5,0.1-7.1c5-5,4.8-12.7-0.7-16.6
		c-3.4-2.4-2.3-3.4-0.1-5.6c5.7-5.7,6-13.4,0.3-17.4c-3.7-2.5-2.7-3.7-0.2-6.1c5.5-5.2,5.9-13,0.5-17c-3.9-2.8-2.5-4-0.1-6.5
		c5.4-5.5,5.3-13.2-0.6-17.3c-2.9-2-2.5-3-0.3-5c4.1-3.6,6.3-8,3.6-13.3c-1.4-2.7-5.3-4.8-5.3-7.2c0-2.5,3.4-4.9,5.2-7.4
		c0.4-0.5,0.4-1.2,0.6-1.9c1.7-6.4-1.4-10.7-6.6-13.9c1.8-1.9,3.4-3.4,4.7-5.1c3.8-4.8,3.4-11.8-1.2-15.2c-3.3-2.4-3.3-3.6-0.3-6.3
		c5.5-5,5.7-13.6,0.3-17c-4.4-2.8-2.4-4-0.1-6.3c5.2-5.2,5.4-13.3-0.1-17.1c-3.9-2.7-2.1-3.8,0-6c5.5-5.7,5.6-13.2-0.3-17.4
		c-3.1-2.2-2.6-3.1-0.3-5.3c6.5-6.2,6.3-13.3-0.7-18.6c-2.1-1.6-1.5-2.2-0.1-3.7c7.8-8.6,7.4-14-1.7-21.2c1.4-1.4,2.8-2.8,4.1-4.3
		c4.2-4.9,4.4-12.4-0.4-15.6c-4.8-3.2-2.7-4.6,0.1-7.4c5.1-5.1,4.6-13.1-1.3-16.9c-2.9-1.9-2.4-2.9-0.3-4.6
		c3.4-2.8,5.9-6.5,4.7-10.8c-1.1-3.7-3.7-7-5.5-10c1.7-3.5,4.5-7.3,5.5-11.6c1.2-5.3-2.9-8.7-7-11.4c11.1-10.1,8.1-18.1-1-23.8
		c2-1.5,4-2.5,5.4-4.1c4.2-4.8,3.9-12.3-1.2-16c-3.3-2.4-2.6-3.4-0.2-5.8c5.6-5.5,5.9-13.4,0.2-17.4c-3.8-2.7-2.2-3.8,0-6
		c5.8-5.8,5.4-13.5-1.1-18c-2.5-1.7-1.4-2.3-0.3-4c2-3.2,5.1-6.8,5-10.2c-0.2-3.9-3.4-7.6-5.3-11.4c-0.9,0-0.5-0.5-0.1-1
		c7.9-8.3,7.8-12-0.2-20.3c-0.5-0.5-0.4-2.6,0.1-2.9c3.7-2.8,6.2-6.3,5.9-11c-0.3-4.7-2.5-8.4-7.3-10.2c0.8-1,1.1-1.6,1.6-2.1
		c7.9-8.6,7.8-12,0-20.5c-0.5-0.5-0.2-2.4,0.4-3c7.6-9.2,7.4-13-0.8-21c-3.7,0-7.3,0-11,0c-5.1,5-10,11-15.5,16
		c-1.3,1.2-4.7,0.1-7.1,0.1c0.2-2.4-0.4-5.4,0.7-7.1c2.1-3.3,5.2-5.9,7.9-8.9c-3,0-6,0-9,0c-1.3,2-2.5,3.4-3.9,5
		C74,12.6,73.7,20,78.6,23.5c4.3,3,2.7,4.6,0.1,7.3c-5,5-5.2,12.1,0.2,16.1c3.6,2.7,2.7,4,0.2,6.6c-5.3,5.4-5.6,12.4-0.2,16.6
		c3.6,2.8,3.3,4.2,0.1,6.9c-5.2,4.4-5.3,12,0.1,16c3.7,2.8,3.3,4.1,0.2,6.8c-5.7,5.1-5.9,12.7-0.2,16.8c3.7,2.8,2.4,4,0,6.4
		c-5.5,5.5-5.6,12.8,0.2,16.9c3.6,2.6,2.6,3.8,0.1,6.1c-5.4,5-6,12.9-0.7,16.6c4.8,3.3,2.5,4.8,0,7.4c-4.7,4.9-5,12.1,0.1,15.8
		c4.4,3.2,2.4,4.7-0.1,7.3c-4.9,5.1-5,12.5,0.3,16.2c4,2.8,2.5,4.1,0.1,6.6c-5.2,5.2-5.7,12.8-0.2,16.6c4.4,3.1,2.2,4.5,0,6.9
		c-4.9,5.2-5.3,12.4,0,16.2c3.9,2.9,2.7,4.3,0.1,6.9c-5.1,5-5.4,12.6-0.1,16.2c4.7,3.2,2.5,4.6-0.1,7.2c-5,5-5,12.5,0.6,16.6
		c3.4,2.5,2.3,3.7,0.1,5.9c-6.1,6.2-6,12.6,0.7,17.9c3,2.4,1.1,3.3-0.4,4.9c-4.9,5.2-6.1,10.5-2.8,15.2c1.4,2,3.5,3.5,6,5.8
		c-1.6,1.3-3.5,2.5-4.9,4.1c-4.2,4.7-4,11.8,1,15.5c3.7,2.7,2.6,4.1,0.1,6.6c-5.3,5.3-5.6,12.7-0.2,16.6c4.1,2.9,2.5,4.3,0,6.8
		c-5,5-5.3,12.6-0.2,16.2c4.5,3.2,2.5,4.7-0.1,7.2c-4.7,4.6-4.9,12.1,0.1,15.9c4,3.1,2.6,4.7,0,7.3c-4.8,4.9-4.7,12,0.8,16.1
		c3.7,2.8,2.7,4,0.1,6.6c-5.4,5.1-6,12.9-0.6,16.7c4.5,3.2,2.1,4.5-0.1,6.8c-4.6,4.6-5,12.2,0.1,15.8c4.9,3.4,2.4,5-0.2,7.7
		c-5,5.1-5.1,12.3,0.3,16.1c4.1,2.9,2.4,4.2,0,6.5c-5.2,5.1-5.5,12.7-0.1,16.6c3.8,2.7,2.9,4,0.2,6.6c-5.3,5.1-5.6,12.4-0.2,16.5
		c3.9,3,2.5,4.3-0.1,6.9c-5.1,5-5.2,12.3,0,16.2c3.7,2.8,3,4.2,0.2,6.9c-5.3,5-5.4,12.9,0,16.5c3.9,2.6,2.8,3.9,0.3,6.3
		c-5.4,5.2-5.9,12.5-0.6,16.6c4.2,3.2,2.5,4.7-0.1,7.3c-4.8,4.9-5,12.1,0,15.8c4.1,3,2.7,4.6,0,7.3c-4.9,4.9-5.1,12.7,0.2,16.2
		c4.5,3,2.3,4.5-0.1,6.8c-4.9,4.8-5.2,12.4,0,16.3c3.8,2.9,2.8,4.3,0.2,6.9c-5.3,5.3-5.4,12.5,0.1,16.5c3.4,2.5,2.9,3.7,0.3,6.2
		c-5.7,5.5-5.9,13.2-0.1,17.3c3.5,2.5,2.4,3.7,0.2,5.8c-6.1,6.2-6.1,12.6,0.5,17.9c2.9,2.3,1.4,3.3-0.2,4.9c-5,5.2-6.1,10.4-3,15.1
		c1.1,1.7,2.8,3.6,4.2,4.6c3.7,0,7.3,0,11,0c4.9-5,9.8-10.2,14.7-15.3c2.3-2.4,5.3-3.6,7.8-1c2.5,2.6,2.5,5.8-0.6,8.7
		c-2.5,2.3-4.6,5.6-6.9,7.6c2.7,0,5.3,0,8,0c1.7-2,3.4-4,5-6.1c3.4-4.4,3.1-11.1-1.4-14.2c-4-2.7-3.1-4.1-0.2-6.8
		c5.3-5.1,5.3-13.1-0.2-17c-3.2-2.3-2.7-3.2-0.3-5.6c5.7-5.4,6.1-13.6,0.4-17.4c-4.2-2.8-2.4-4,0-6.3c5.3-5.2,5.5-13.4,0-17
		c-3.9-2.6-2.3-3.8-0.2-6c6.1-6.3,5.7-12.7-1.2-18.2c-2.2-1.7-1.2-2.3,0.1-3.7c7.8-8.4,7.3-14-2.6-21.7c1.6-1.2,3.2-2.1,4.4-3.4
		c4.8-5,4.8-13.1-0.6-16.7c-4-2.6-2.2-3.8,0-5.9c5.4-5.4,5.8-13.1,0.3-17c-4-2.8-2.4-4,0-6.4c5.1-5.2,5.4-13.1,0.1-16.7
		C114.2,605.8,116.2,604.5,118.6,602.1z M114.2,551.4c-8,8-16,16-24,23.9c-1.1,1.1-2.7,1.6-4.5,2.5c-1.4-1.1-3.4-1.9-3.7-3.1
		c-0.5-1.7-0.5-4.4,0.5-5.4c8.4-8.8,16.9-17.4,25.8-25.7c1.1-1.1,5-0.7,6.5,0.4C117.2,546.1,116.6,549.1,114.2,551.4z M114.4,528.1
		c-8.1,8.1-16.2,16.2-24.4,24.2c-1,1-2.5,1.5-4.2,2.5c-1.5-1.2-3.5-2.1-4-3.5c-0.5-1.6-0.3-4.3,0.7-5.4c8.1-8.5,16.5-16.8,24.9-25.1
		c2.2-2.1,4.8-2.5,7.1-0.3C117,523,116.7,525.7,114.4,528.1z M114.3,365.6c-8.2,8.3-16.4,16.5-24.7,24.7c-0.9,0.9-2.2,1.3-3.8,2.1
		c-1.4-1.2-3.6-2.1-3.9-3.5c-0.4-1.8-0.1-4.5,1-5.8c3.6-4.2,7.6-7.9,11.5-11.7c4.2-4.2,8.5-8.4,12.7-12.7c2.3-2.4,4.9-3,7.4-0.6
		C117.1,360.5,116.6,363.3,114.3,365.6z M114.4,272.8c-8,8.2-16.2,16.2-24.4,24.2c-1,1-2.5,1.5-4.1,2.5c-1.5-1.2-3.6-2.1-4-3.5
		c-0.4-1.8-0.1-4.5,1-5.8c4.8-5.3,9.9-10.2,15-15.3c3.1-3.1,6.1-6.1,9.2-9.1c2.3-2.2,4.9-3.1,7.4-0.6
		C117.1,267.8,116.7,270.6,114.4,272.8z M114.3,195.9c1.2,1.6,1.5,5.5,0.3,6.8c-8,8.6-16.5,16.9-24.9,25.1c-1,0.9-2.6,1.2-4.3,2
		c-1.3-1.1-3.3-1.9-3.6-3.1c-0.5-1.7-0.4-4.3,0.6-5.4c8.3-8.6,16.7-17.1,25.4-25.3C109.1,194.8,113.5,194.8,114.3,195.9z
		 M114.5,179.6c-3.4,4.3-7.6,7.9-11.5,11.8c-4.2,4.2-8.4,8.5-12.7,12.6c-1.1,1.1-2.7,1.7-4.5,2.8c-1.5-1.3-3.4-2.2-3.9-3.6
		c-0.6-1.4-0.5-4,0.5-5c8.5-8.8,17.2-17.6,26.2-26c1.1-1,5.5-0.5,6,0.4C115.4,174.6,115.7,178.1,114.5,179.6z M114.6,156.3
		c-8.2,8.8-16.8,17.1-25.3,25.5c-0.8,0.8-2,1-3.6,1.8c-1.3-1.1-3.4-2-3.8-3.3c-0.5-1.8-0.2-4.5,0.9-5.8c3.7-4.3,7.9-8.1,11.9-12.1
		c4.2-4.2,8.5-8.4,12.7-12.7c2.2-2.2,5.2-2.9,6.9-0.3C115.5,151.1,115.8,155,114.6,156.3z M117.1,60.2c-1.4,2.1-2.2,3.7-3.5,5
		c-7.2,7.3-14.5,14.6-21.8,21.8c-0.6,0.6-1.2,1.2-1.9,1.7c-2.6,1.8-5.8,2.3-7.5-0.4c-1-1.7-0.7-5.5,0.5-7c4.2-5.1,9.1-9.6,13.9-14.2
		c3.6-3.6,7.2-7.3,11.2-10.6c1.2-1,3.9-1.2,5.4-0.6C115,56.5,115.9,58.6,117.1,60.2z M82.4,35.9c8.5-8.9,17.2-17.6,26.1-26
		c1-1,5.7-0.3,6.3,0.9c0.9,1.8,0.7,5.4-0.6,6.9c-4,4.8-8.8,9.1-13.2,13.5c-3.5,3.5-7,7.1-10.7,10.5c-1.1,1.1-2.7,1.8-4.5,2.9
		c-1.5-1.4-3.4-2.3-3.9-3.7C81.3,39.4,81.4,36.9,82.4,35.9z M83.1,57.9c8.1-8.1,16.1-16.3,24.4-24.2c1.2-1.2,4-1.6,5.8-1.1
		c1.3,0.3,2.2,2.5,3.4,4c-1.1,1.8-1.6,3.5-2.7,4.6c-7.9,8-16,16-24,24c-2.4,2.4-5.1,2.7-7.4,0.3C80.2,63,80.8,60.2,83.1,57.9z
		 M83.2,104.5c4.3-5,9.2-9.6,13.8-14.4c3.2-3.2,6.3-6.4,9.5-9.5c2.4-2.3,5.2-3.5,7.9-0.9c2.8,2.8,1.9,5.7-0.7,8.3
		c-7.7,7.6-15.3,15.3-23.1,22.8c-1.2,1.2-2.9,1.9-4.8,3.2c-1.6-1.2-4-2.1-4.1-3.3C81.5,108.8,81.9,106,83.2,104.5z M82.5,128.4
		c8.4-8.8,16.9-17.4,25.8-25.6c1.1-1.1,5.7-0.6,6.3,0.5c1,1.7,1,5.4-0.3,6.9c-3.6,4.5-8,8.4-12.1,12.5c-3.9,3.9-7.7,7.8-11.7,11.5
		c-1.1,1.1-2.7,1.8-4.5,3c-1.5-1.2-3.6-2-4-3.3C81.4,132.3,81.5,129.5,82.5,128.4z M83.1,150.8c8.1-8.1,16.1-16.3,24.5-24.1
		c1.3-1.2,4-1.6,5.8-1.2c1.3,0.3,2.2,2.5,3.4,4c-1.1,1.8-1.7,3.4-2.8,4.5c-7.8,7.9-15.7,15.8-23.5,23.7c-2.4,2.4-5.3,3.2-7.9,0.6
		C80.1,155.7,80.8,153,83.1,150.8z M83.6,243c7.8-7.8,15.4-15.6,23.4-23.1c1.4-1.3,4.1-1.9,6.1-1.7c1.3,0.1,2.3,2.4,3.7,4
		c-1.3,2-2.1,3.9-3.4,5.2c-7.5,7.6-15.1,15-22.6,22.6c-2.5,2.5-5.2,4.1-8.2,1.3C79.8,248.4,81.2,245.4,83.6,243z M83.3,266.6
		c8.1-8.1,16.1-16.3,24.4-24.2c1.2-1.2,4-1.4,5.8-0.9c1.3,0.3,2.1,2.5,3.3,4c-1.1,1.8-1.7,3.4-2.8,4.6c-7.8,7.9-15.8,15.7-23.6,23.6
		c-2.5,2.5-5.2,3.2-7.8,0.4C80.1,271.6,81,268.9,83.3,266.6z M82.5,314.1c8.4-8.8,16.9-17.4,25.8-25.7c1.1-1,5.6-0.6,6.3,0.6
		c1,1.8,1,5.4-0.2,6.9c-4.1,5-9,9.3-13.6,13.9c-3.4,3.4-6.8,6.8-10.3,10.2c-1.1,1.1-2.6,1.8-4.5,3c-1.5-1.2-3.6-2-4-3.4
		C81.4,317.9,81.5,315.1,82.5,314.1z M82.6,343.7c-2.3-2.5-1.7-5.1,0.6-7.5c8-8,16-16,24-23.9c1-1,2.4-1.6,4.1-2.6
		c1.5,1.1,3.8,2,4.1,3.2c0.4,2,0.2,4.9-1,6.2c-5,5.6-10.5,10.7-15.8,16c-2.8,2.8-5.6,5.7-8.5,8.4C87.7,345.8,84.9,346.2,82.6,343.7z
		 M82.4,360.6c8.4-8.8,16.9-17.3,25.7-25.6c1.2-1.1,5.2-0.9,6.4,0.3c1.2,1.2,1.4,5.2,0.3,6.4c-8.1,8.7-16.7,17.1-25.2,25.4
		c-0.9,0.9-2.6,1.1-3.2,1.3C81.5,367.9,79.5,363.6,82.4,360.6z M83.6,405.4c7.9-7.8,15.7-15.8,23.8-23.5c1.3-1.3,4.2-1.6,6.2-1.3
		c1.2,0.2,2.1,2.5,3.2,4.1c-1.1,1.8-1.8,3.4-2.9,4.5c-7.7,7.8-15.5,15.5-23.3,23.3c-2.6,2.6-5.3,3.7-8.2,0.7
		C79.9,410.4,81.2,407.8,83.6,405.4z M82.8,429.1c8.2-8,16.2-16.1,24.5-24c1.3-1.2,4-1.8,5.7-1.4c1.5,0.4,2.5,2.6,3.8,4.1
		c-1.1,1.9-1.6,3.3-2.6,4.3c-8,8.1-16.1,16.2-24.3,24.2c-2.4,2.4-5.2,2.6-7.4,0.2C80.4,434.3,80.3,431.6,82.8,429.1z M81.8,458.9
		c-0.2-2.2,0.2-5.1,1.6-6.7c5.8-6.4,12-12.3,18.1-18.4c1.9-1.9,3.8-3.7,5.7-5.5c2.4-2.4,5.3-3.1,7.2-0.4c1.1,1.6,1.2,5.6,0,6.9
		c-8,8.6-16.5,16.8-24.9,25c-0.9,0.9-2.2,1.2-4,2.1C84.3,460.9,81.9,460,81.8,458.9z M83.5,474.7c7.8-7.7,15.5-15.4,23.5-22.9
		c1.6-1.5,4.1-1.8,6.2-2.7c0-0.1,0-0.2,0-0.3c0,0.1,0.1,0.1,0.1,0.2c4.1,4.9,4,6.5-0.6,11.2c-7.3,7.3-14.6,14.5-21.8,21.8
		c-2.8,2.8-5.7,3.8-8.7,1C79.3,480,81.1,477.1,83.5,474.7z M82.1,499.8c8.4-8.7,17-17.3,25.9-25.5c1.2-1.1,5.6-0.7,6.8,0.6
		c1.1,1.2,0.9,5.4-0.3,6.8c-7.9,8.5-16.3,16.6-24.6,24.8c-1,1-2.5,1.4-4.2,2.4c-1.5-1.2-3.4-2.1-4-3.5
		C81.1,503.6,81.1,500.8,82.1,499.8z M82.3,523.1c8.5-8.9,17.2-17.6,26.2-26c1.1-1,5.7-0.4,6.2,0.6c0.9,1.9,0.9,5.5-0.4,6.9
		c-4.9,5.6-10.4,10.7-15.7,16c-2.8,2.8-5.7,5.6-8.6,8.3c-1,1-2.4,1.6-4.1,2.7c-1.5-1.3-3.4-2.2-4-3.6
		C81.3,526.7,81.3,524.1,82.3,523.1z M83,591.7c8.2-8.3,16.4-16.5,24.8-24.6c1.2-1.1,3.8-1.5,5.4-1c1.4,0.4,2.3,2.4,3.7,3.9
		c-1.2,2-1.8,3.7-3,5c-7.8,7.9-15.8,15.7-23.7,23.6c-2.3,2.3-4.9,3.1-7.4,0.6C80.2,596.7,80.7,594,83,591.7z M82.3,639.1
		c8.5-8.9,17.2-17.6,26.2-26c1-1,5.1-0.6,5.9,0.5c1.1,1.5,1.3,4.9,0.3,6.5c-1.9,3-4.9,5.3-7.5,7.9c-5.4,5.4-10.8,10.9-16.2,16.2
		c-1.4,1.3-3.1,2.2-5.1,3.6c-1.6-1.4-3.5-2.3-4.1-3.8C81.3,642.6,81.4,640.1,82.3,639.1z M114.4,782.8c-2.4,3.5-5.7,6.4-8.8,9.4
		c-5.3,5.2-10.6,10.5-16,15.6c-1,1-2.5,1.4-3.8,2c-0.7,0.6-1.4,1.1-2.1,1.7c-0.6-1.6-1.5-3.1-1.7-4.7c-0.2-1.8-0.6-4.4,0.4-5.4
		c8.5-8.9,17.2-17.6,26.1-25.9c1-1,5.4-0.5,5.9,0.5C115.4,777.8,115.6,781.2,114.4,782.8z M113.7,760.7
		c-7.1,7.5-14.5,14.6-21.9,21.9c-0.5,0.5-1,0.9-1.4,1.4c-2.4,2.5-5.2,3.3-7.8,0.6c-2.7-2.7-1.5-5.5,0.9-7.8
		c4.6-4.6,9.2-9.2,13.8-13.8c3.3-3.3,6.6-6.6,10-9.8c1.2-1.1,2.7-1.7,4.5-2.8c1.5,1.3,3.8,2.4,3.9,3.7
		C115.7,756.3,115.1,759.2,113.7,760.7z M114.6,736.5c-5.8,6-11.7,11.8-17.5,17.7c-2.2,2.2-4.4,4.5-6.7,6.6
		c-1.2,1.1-2.7,1.7-4.5,2.8c-1.5-1.3-3.4-2.2-4-3.6c-0.6-1.4-0.5-4,0.4-5c8.4-8.7,16.9-17.4,25.8-25.7c1.2-1.1,4.9-0.9,6.5,0.2
		C117.2,731.3,116.7,734.3,114.6,736.5z M116.8,709.3c-1.2,2-1.8,3.7-3,5c-7.7,7.8-15.6,15.5-23.3,23.2c-2.4,2.4-5.1,3.6-7.8,0.8
		c-2.7-2.7-1.7-5.4,0.7-7.9c8-8,15.9-16.1,24.1-23.8c1.3-1.2,4-1.6,5.8-1.3C114.6,705.6,115.5,707.8,116.8,709.3z M114.7,683.1
		c2.7,2.7,1.6,5.5-0.8,7.9c-7.9,7.9-15.7,15.7-23.7,23.5c-1.1,1.1-2.7,1.6-4.6,2.7c-1.5-1.3-3.6-2.2-3.9-3.5c-0.4-1.8,0-4.4,1.2-5.8
		c3.3-3.9,7.2-7.3,10.8-11c4.3-4.3,8.7-8.7,13-13C109.3,681.4,112.1,680.5,114.7,683.1z M116.8,663.2c-1.3,1.9-2,3.6-3.3,4.8
		c-7.4,7.6-15,15.1-22.5,22.6c-2.6,2.6-5.6,4.3-8.6,1.1c-2.8-3-1.2-5.6,1.4-8.1c7.7-7.5,15.1-15.4,23-22.8c1.5-1.4,4.4-1.8,6.6-1.6
		C114.7,659.3,115.6,661.6,116.8,663.2z M116.9,639.9c-1.3,2.1-2.1,3.8-3.3,5c-7.6,7.7-15.3,15.2-23,22.9c-2.4,2.4-5.1,3.6-7.8,0.9
		c-3-2.9-1.6-5.7,0.9-8.2c7.8-7.7,15.4-15.6,23.4-23.2c1.4-1.3,4.2-2,6.1-1.7C114.5,635.9,115.6,638.3,116.9,639.9z M113.6,598.4
		c-7.7,7.8-15.5,15.5-23.2,23.3c-2.4,2.4-5.2,3.2-7.8,0.5c-2.7-2.8-1.4-5.4,1-7.8c7.8-7.7,15.4-15.6,23.3-23.2
		c1.5-1.4,4.4-1.9,6.6-1.7c1.1,0.1,2.1,2.5,3.4,4.1C115.6,595.5,114.8,597.1,113.6,598.4z"/>
	<path id="XMLID_2266_" d="M39.3,751.1c-10.7,13.7-21.5,27.1-32.4,40.6c-5.7,7-7.7,14.3-4.9,23.3c2,0,4,0,6,0c1.1-1,2.1-2.9,3.2-4.4
		c9.8-12.2,19.7-24.3,29.3-36.6c5.1-6.5,7.2-13.8,4.1-22C43.3,748.4,42.2,747.4,39.3,751.1z"/>
	<path id="XMLID_2299_" d="M35,2.9c-6.7,0-13.3,0-20,0c-4.1,6-8.8,11.4-12.2,17.6C-0.9,27.1,0,33.9,4.5,40.7
		C14.9,27.8,25,15.9,35,2.9z"/>
	<path id="XMLID_2305_" d="M39.7,784.5c-2.8,3.9-6,7.4-9,11.2c-4.9,6.4-9.8,13.2-14.7,19.2c6.7,0,13.3,0,20,0c1.9-3,3.7-5.7,5.6-8.5
		c4.3-6.6,6.1-13.5,2.9-21.1C43.1,782.2,42.1,781.2,39.7,784.5z"/>
	<path id="XMLID_2373_" d="M7,2.9c-1.7,0-3.3,0-5,0c0.8,1,1.6,2.4,2.7,4C5.6,5.4,6.3,3.9,7,2.9z"/>
	<path id="XMLID_3562_" d="M40,39.7C28.7,54,17.1,68.2,5.9,82.6C0.6,89.3-1,96.8,2.5,105c1,2.5,2,3.7,4.3,0.8
		C18,91.7,29.5,77.7,40.5,63.3c3.1-4,4.5-9.3,6.4-13.4c-1.2-4.2-1.9-7-2.9-9.8C43.1,37.3,41.8,37.5,40,39.7z"/>
	<path id="XMLID_3563_" d="M40.1,242.7c-11.6,14.6-23.4,29-34.9,43.8c-4.9,6.3-5.9,13.6-3,21.3c1.3,3.5,2.6,3.5,4.9,0.6
		c11.1-14,22.5-27.7,33.3-41.8c3.1-4.1,4.6-9.3,6.5-13.4c-1.2-4.2-1.9-7.1-2.8-9.9C43.2,240.5,42,240.3,40.1,242.7z"/>
	<path id="XMLID_3564_" d="M44,378.3c-1.2-2.4-2.1-2.5-3.8-0.3c-4.8,6.2-9.8,12.2-14.7,18.3c-7.2,9.1-14.8,18.1-21.4,27.6
		c-4.9,7.1-4.7,14.9,0.5,23.1c12.9-16.4,25.7-32.1,37.9-48.3C47.1,392.6,47.5,385.4,44,378.3z"/>
	<path id="XMLID_3565_" d="M41.3,96.1c6.4-8.8,6.4-17.9,0.5-24.7c-4.9,6.1-9.9,12.1-14.7,18.2c-7,8.7-14,17.3-20.8,26.1
		c-6.8,8.9-7.4,17.7-1.7,26.3c5.9-7.2,11.4-14,16.9-20.9C28.2,112.9,35,104.7,41.3,96.1z"/>
	<path id="XMLID_3566_" d="M4.7,616c12.7-16,25.4-31.8,37.6-47.9c4.6-6,5.1-13.2,1.7-20.4c-1.3-2.7-2.2-2.8-4-0.5
		c-11.6,14.6-23.4,29-34.9,43.7C-0.8,598.7-0.8,608.1,4.7,616z"/>
	<path id="XMLID_3567_" d="M7.4,714c11-14,22.3-27.8,33.4-41.7c6.5-8.2,7-17.3,1.3-26.1c-12.8,16.1-25.4,31.5-37.5,47.4
		C0.3,699.2-0.6,706,2,713C3.4,716.6,4.5,717.6,7.4,714z"/>
	<path id="XMLID_3568_" d="M39.6,344.8C28.5,358.9,17,372.7,6,386.9c-5.3,6.8-7.1,14.5-3.4,22.9c1.3,2.9,2.1,3.2,4.2,0.5
		c11.2-14.2,22.8-28.2,33.8-42.6c3.1-4,4.5-9.3,6.3-13.3c-1.1-4-1.7-6.5-2.5-9C43.3,342,42,341.7,39.6,344.8z"/>
	<path id="XMLID_3569_" d="M40.3,141.1c-11.4,14.5-23.2,28.7-34.6,43.2c-6.3,8-6.6,16.9-1,25.7c12.6-15.9,25.2-31.2,37.2-46.9
		c4.9-6.3,5.6-13.7,2.3-21.3C43.2,139.8,42.6,138.1,40.3,141.1z"/>
	<path id="XMLID_3570_" d="M4.4,74.7c5-6.3,9.7-12,14.4-17.9C26,47.9,33.3,39,40.3,30c5.4-7,7.7-14.6,4-23.3C43.3,4.3,42.2,3.3,40,6
		C28.4,20.6,16.6,34.9,5.3,49.7C-0.4,57.1-1.1,65.5,4.4,74.7z"/>
	<path id="XMLID_3571_" d="M40.2,580.9c-4.2,5.4-8.5,10.7-12.8,16c-7,8.7-14.1,17.3-21,26.1c-7,8.9-7.6,18.3-1.7,26.7
		c12.7-16.1,25.5-31.8,37.7-48c4.5-6,5-13.3,1.5-20.4C42.8,579,42,578.7,40.2,580.9z"/>
	<path id="XMLID_3572_" d="M40.2,208.8C28.5,223.5,16.6,238,5.1,252.9c-6,7.7-5.9,16.2-0.5,24.7C17.1,262,29.4,247,41.3,231.6
		c5-6.5,6.6-14.1,2.9-22C43.2,207.5,42.4,206,40.2,208.8z"/>
	<path id="XMLID_3573_" d="M4.7,175.8c12.3-15.3,24.8-30.4,36.7-45.9c4.8-6.3,6.3-13.8,2.9-21.6c-1.1-2.5-2.1-3.5-4.3-0.7
		c-11.6,14.6-23.4,28.9-34.8,43.7C-0.9,159.1-0.8,168.6,4.7,175.8z"/>
	<path id="XMLID_3574_" d="M42.1,273.8c-12.9,16.2-25.7,31.9-37.9,48.1c-5.5,7.4-4.8,16.2,0.7,23.2c12.7-16.2,25.6-32,37.7-48.4
		C47.8,289.8,47.4,281.9,42.1,273.8z"/>
	<path id="XMLID_3575_" d="M44.1,412.4c-1.3-2.7-2.3-2.7-4-0.5C28.4,426.6,16.5,441.1,5,456c-6,7.8-5.7,16.7-0.3,24.5
		c12.4-15.5,24.9-30.8,36.9-46.4C46.5,427.7,47.8,420.2,44.1,412.4z"/>
	<path id="XMLID_3576_" d="M21.7,730c7-8.8,14.3-17.5,20.8-26.7c5-7.2,5.2-15.1-0.2-23.2c-3.3,4.1-6.3,7.8-9.3,11.5
		c-9,11.1-17.9,22.2-26.9,33.4c-5.6,7-8,18.3-1.3,25.9C10.4,743.9,16.1,737,21.7,730z"/>
	<path id="XMLID_3577_" d="M41.7,714.9C29.1,730.5,16.2,746,4.1,762c-5.1,6.8-4.8,14.9,0.4,23.1c12.6-15.7,24.9-30.7,36.8-46.1
		c5.8-7.6,6.8-16.1,1.4-24.6C42.3,714.6,41.8,714.6,41.7,714.9z"/>
	<path id="XMLID_3578_" d="M42.5,195.7c5.1-6.9,5.2-14.9-0.4-23.3c-12.9,16.3-25.8,31.9-37.8,48c-5.2,7-5.2,15.2,0.3,23.5
		C17.5,227.6,30.4,211.9,42.5,195.7z"/>
	<path id="XMLID_3579_" d="M40.3,310.2C28.5,325,16.4,339.6,5,354.7c-5.6,7.3-5.9,15.6-0.5,24.4c5.1-6.2,9.8-12,14.5-17.8
		c7.2-8.9,14.5-17.8,21.5-26.9c5.5-7.2,7.8-15,3.6-23.7C43,308.5,42.1,307.9,40.3,310.2z"/>
	<path id="XMLID_3580_" d="M6.4,546c11.6-14.5,23.5-28.9,34.8-43.6c4.9-6.4,6.6-13.7,3.3-21.6c-1.2-3-2.3-4.2-4.8-0.8
		c-4.3,5.7-8.9,11.2-13.3,16.7c-7.1,8.8-14.4,17.5-21.1,26.5c-6.1,8.1-6.1,17.4-0.4,24.9C5.4,547.4,5.8,546.6,6.4,546z"/>
	<path id="XMLID_3581_" d="M39.6,514c-1.5,2.2-3.3,4.2-5,6.2c-9.3,11.5-18.6,23-27.7,34.6c-7.4,9.4-8.1,17.7-2.4,27.2
		c5-6.1,9.7-11.8,14.3-17.7c8.3-10.6,16.7-21.1,24.5-32c3.7-5.2,3.8-11.5,1-17.6C43.1,512.1,41.8,510.8,39.6,514z"/>
	<path id="XMLID_3582_" d="M6.7,511.8c11.4-14.3,23-28.4,34.2-42.9c6.6-8.5,6.7-16.2,1.1-25.5c-3.3,4.2-6.2,8.1-9.2,11.8
		c-9,11.1-18.1,22.1-27,33.3C0.6,495.3-1,502.8,2.4,511C3.5,513.6,4.5,514.6,6.7,511.8z"/>
	<path id="XMLID_3583_" d="M4.5,659.7c-5.7,7.6-5.1,17.3,0.4,23.4C17,668,29.3,653.2,41.1,637.9c6.6-8.5,6.6-17.1,0.9-25.5
		C29.2,628.5,16.5,643.9,4.5,659.7z"/>
</g>
</svg>
