<?xml version="1.0" encoding="utf-8"?>
<!-- Generator: Adobe Illustrator 19.0.0, SVG Export Plug-In . SVG Version: 6.00 Build 0)  -->
<svg version="1.1" id="Layer_1" xmlns="http://www.w3.org/2000/svg" xmlns:xlink="http://www.w3.org/1999/xlink" x="0px" y="0px"
	 viewBox="-199 201 200 200" style="enable-background:new -199 201 200 200;" xml:space="preserve">
<style type="text/css">
	.st0{fill:none;stroke:#000000;stroke-width:2;stroke-linecap:round;stroke-miterlimit:10;}
</style>
<g>
	<polygon points="-174.1,385.1 -158.1,369.6 -158.1,347.3 -174.1,362.8 	"/>
</g>
<g>
	<polygon points="-154.9,366.5 -138.9,350.9 -138.9,328.6 -154.9,344.2 	"/>
</g>
<g>
	<polygon points="-135.8,347.9 -119.8,332.3 -119.8,310 -135.8,325.6 	"/>
</g>
<g>
	<polygon points="-116.6,329.2 -100.6,313.7 -100.6,291.4 -116.6,306.9 	"/>
</g>
<g>
	<polygon points="-97.4,310.6 -81.4,295.1 -81.4,272.8 -97.4,288.3 	"/>
</g>
<g>
	<polygon points="-78.2,292 -62.2,276.4 -62.2,254.1 -78.2,269.7 	"/>
</g>
<g>
	<polygon points="-59.1,273.4 -43.1,257.8 -43.1,235.5 -59.1,251.1 	"/>
</g>
<g>
	<polygon points="-39.9,254.7 -23.9,239.2 -23.9,217.2 -24.2,217.2 -39.9,232.4 	"/>
</g>
<path class="st0" d="M-141.1,251.8c-0.5-0.3-1-0.5-1.5-0.6c0.5-0.1,1-0.3,1.5-0.6c2.7-1.6,3.6-5.1,3.6-5.1s-3.5-1-6.2,0.6
	c-0.5,0.3-0.9,0.6-1.2,1c0.1-0.5,0.2-1,0.2-1.6c0-3.1-2.6-5.7-2.6-5.7s-2.6,2.5-2.6,5.7c0,0.5,0.1,1.1,0.2,1.6
	c-0.4-0.4-0.8-0.7-1.2-1c-2.7-1.6-6.2-0.6-6.2-0.6s0.9,3.5,3.6,5.1c0.5,0.3,1,0.5,1.5,0.6c-0.5,0.1-1,0.3-1.5,0.6
	c-2.7,1.6-3.6,5.1-3.6,5.1s3.5,1,6.2-0.6c0.5-0.3,0.9-0.6,1.2-1c-0.1,0.5-0.2,1-0.2,1.6c0,3.1,2.6,5.7,2.6,5.7s2.6-2.5,2.6-5.7
	c0-0.5-0.1-1.1-0.2-1.6c0.4,0.4,0.8,0.7,1.2,1c2.7,1.6,6.2,0.6,6.2,0.6S-138.4,253.3-141.1,251.8z"/>
<path d="M-56.9,350.2c0.5,0.3,1,0.5,1.5,0.6c-0.5,0.1-1,0.3-1.5,0.6c-2.7,1.6-3.6,5.1-3.6,5.1s3.5,1,6.2-0.6c0.5-0.3,0.9-0.6,1.2-1
	c-0.1,0.5-0.2,1-0.2,1.6c0,3.1,2.6,5.7,2.6,5.7s2.6-2.5,2.6-5.7c0-0.5-0.1-1.1-0.2-1.6c0.4,0.4,0.8,0.7,1.2,1
	c2.7,1.6,6.2,0.6,6.2,0.6s-0.9-3.5-3.6-5.1c-0.5-0.3-1-0.5-1.5-0.6c0.5-0.1,1-0.3,1.5-0.6c2.7-1.6,3.6-5.1,3.6-5.1s-3.5-1-6.2,0.6
	c-0.5,0.3-0.9,0.6-1.2,1c0.1-0.5,0.2-1,0.2-1.6c0-3.1-2.6-5.7-2.6-5.7s-2.6,2.5-2.6,5.7c0,0.5,0.1,1.1,0.2,1.6
	c-0.4-0.4-0.8-0.7-1.2-1c-2.7-1.6-6.2-0.6-6.2-0.6S-59.6,348.7-56.9,350.2z"/>
</svg>
