<?xml version="1.0" encoding="utf-8"?>
<!-- Generator: Adobe Illustrator 19.0.0, SVG Export Plug-In . SVG Version: 6.00 Build 0)  -->
<svg version="1.1" id="Layer_1" xmlns="http://www.w3.org/2000/svg" xmlns:xlink="http://www.w3.org/1999/xlink" x="0px" y="0px"
	 viewBox="0 0 420.2 415.1" style="enable-background:new 0 0 420.2 415.1;" xml:space="preserve">
<path id="XMLID_10_" d="M202.3,34.5c2-3.7,5.3-6.8,7.6-10.4c2.2-3.4,4.7-7,5.7-10.8c2.2-7.8-5.2-15.4-12.8-12.7
	c-4.7,1.7-9.8,5.4-12.2,9.7c-4.2,7.4-9.2,12.9-16.9,16.8c-15.3,7.7-19.1,25.2-7.6,38.1c9.8,11,21.1,20.6,31.6,31
	c4.2,4.1,10,8.1,11.5,13.2c3.3,11.2,2,22.9-2.6,34c-1-14.8-9-24.1-22.9-28.3c-4.3-1.3-7.7-2-3.9-7.4c1.2-1.7,1-4.3,1.4-6.6
	c0,0,0,0,0,0c3.1-13.4-5.2-28.1-19.1-34.1c-13.6-5.8-31.3-1.8-37.8,9.8c-2.5,4.4-3.6,11.4-1.9,16c4,11.1,4.8,10.8-7.3,11.3
	c-1.3,0-2.7-0.3-4,0c-5.5,1.1-6.8-1.5-6.1-6.3c0.1-0.8-0.4-1.7-0.6-2.5c-0.6,0.8-1.2,1.5-1.6,2.3c-2.8,5.7-5.5,11.4-8.3,17
	c-4.6,9.1-5.6,18.2-0.1,27.1c3.2,5.3,8.1,9.1,14.6,6.8c6-2.2,8.4-7.6,7-13.8c-1.3-5.6-3.2-11.2-5.5-16.5c-1.6-3.7-0.7-4.7,2.9-4.8
	c5.7-0.1,11.3-0.2,16.9-0.7c7.9-0.7,11.7-7.4,8.4-14.8c-1-2.1-2.1-4.1-3.3-6.1c-3.6-6.2-2.2-11.2,4.2-14.5
	c8.7-4.6,21.5,0.1,25.8,9.5c5.7,12.6-1.2,25.3-15.7,30.2c-8.4,2.9-16.5,7-24.6,10.8c-1.1,0.5-0.9,2.9-1.9,4.4c0,0,0,0,0,0
	c0,2.2-0.2,4.8-1.4,6.4c-7.7,11-15.7,21.8-23.5,32.8c-2.3,3.3-3.5,2.4-5.9-0.1c-5.4-5.8-10.9-11.7-17.2-16.4
	c-4.2-3.1-2.8-3.9-0.1-6.7c4.5-4.7,9.1-9.6,12.3-15.2c3.1-5.7-2.7-12.7-8.5-10.1c-4.6,2-7.8,7.3-11.5,11.2c-0.4,0.4,0,1.5,0.1,2.3
	c0.7-0.5,1.5-0.9,2.2-1.4c2.7-2.3,5.3-4.7,8.2-6.8c0.6-0.4,2.3,0.1,3.1,0.7c0.5,0.4,0.3,1.9,0,2.8c-1.9,5.5-18.7,17.7-24.7,18
	c-19.4,0.9-28.2,11.2-26.3,30.6c0.7,7.1,1.8,14.2,2.5,21.3c0.1,1.2-0.6,2.5-0.9,3.8c-1.1-0.6-2.1-1.3-3.2-1.9
	c-8-4.1-16.1-8.2-24.2-12.1c-0.9-0.4-2.3,0.4-3.5,0.7c0.9,0.6,1.8,1.3,2.7,1.9c6.7,4.2,13.6,8.2,20.2,12.8c1.7,1.2,2.2,4.1,3.3,6.2
	c-2.3,0.6-4.6,1.3-6.9,1.6c-1.8,0.2-3.7-0.1-5.5-0.3c2,1.3,3.8,3.2,6,3.9c2.6,0.8,5.6,0.3,8.4,0.6c1.5,0.2,3.6,0.4,4.3,1.4
	c3.7,5.8,8.9,11.5,10.1,17.8c1.4,7.8,5.1,12.8,10.6,17.4c5.4,4.6,10.2,10,15.9,14c2.9,2,7.4,2.1,11.2,2.4c9.8,0.7,18.4,9.4,29.1,4.1
	c0.8-0.4,2.4,0.2,3.2,0.9c3.6,2.7,7.3,5.3,10.4,8.6c1.3,1.3,1.5,4.3,1.2,6.3c-0.9,4.7-3.1,9.2-3.6,13.9c-1.1,10.4,1.4,19.6,11,25.5
	c8.5,5.2,16.9,4.1,25-0.8c6.9-4.2,11.4-17.5,9.4-26.9c-0.3-1.6-0.2-3.3-0.3-5c2,1.1,4.1,2,5.9,3.4c1.7,1.4,2.6,4.2,4.4,5
	c4.6,1.9,2.1,3.2,0.4,5.5c-3.8,5.1-8.8,10.1-10.6,15.9c-5.5,18.4-0.6,35.1,11.2,49.9c4.2,5.3,10.1,9.4,13.5,15.1
	c11.1,18.5,33.9,25.4,53.1,20.7c19.6-4.8,30.1-20.3,40.8-35.2c1.9-2.7,2-6.6,3.1-9.9c1-3.2,2.2-6.4,3.4-9.6
	c3.6-9.3,11.5-17.1,7.5-28.8c-1.6-4.7,0.5-9.7,6.2-12.3c2.3-1,3.6-4,5.5-5.9c0.6-0.6,1.6-0.7,2.5-1.1c-0.2,7.4,6.6,8.9,11,11.5
	c6.5,3.9,14,8.5,21.8,4.3c5.2-2.8,9.4-7.8,13.7-12.2c3.1-3.3,2.8-3.9,1.3-8c-0.1-0.3,0.2-1,0.5-1.2c4.5-3.1,8.8-6.7,13.6-9.2
	c2.6-1.3,6.1-0.9,9.1-1.2c0,0,0,0,0,0c1.3-0.8,2.9-1.4,3.9-2.5c5.5-5.8,10.9-11.8,16.4-17.6c3.8-4,10.1-7.1,11.4-11.7
	c3-11,3.8-22.6,5.1-34c0.2-1.7-1.4-3.6-2.3-5.3c-1.2-2.1-2.7-4-4-6.1c-2.8-4.7-5.6-9.4-8.3-14.1c-0.3-0.1-0.6-0.1-0.8-0.2
	c-0.3-0.2-0.6-0.3-0.9-0.5c0.5-0.3,1-0.5,1.4-0.8l-0.1,0c-1.3-2.1-2.2-5.4-4.1-6.1c-5.9-2.3-12.3-3.6-18.3-5.5c-3-1-5.8-2.6-8.6-3.9
	c0,0,0,0.1,0,0.1c-1.9-14.7-9.2-25.7-22.2-33c-2.1-1.2-4-3.4-5.2-5.6c-5.1-9.6-11.2-18.2-21.4-23c-3.7-1.7-9-1.3-11.6-3.9
	c-7.4-7.1-13.8-15.2-20.4-23.1c-1.6-1.9-2.2-4.5-3.3-6.8c0.1,3-0.1,6.1,0.5,9.1c0.4,2.2,1.7,4.3,3,6.2c3.1,4.9,6.4,9.7,9.5,14.7
	c0.3,0.5,0,2.2-0.2,2.2c-5.5,1-16.4-8.7-16.3-14.2c0.4-16.4-4.5-30.8-16.6-42.3c-1.1-1.1-2.8-1.5-4.2-2.3c0.6,1.4,0.8,3.1,1.7,4.3
	c7,9.9,11.8,20.4,11.5,32.8c0,1.1-0.4,2.2-0.6,3.3c-0.7-0.8-1.4-1.6-2.1-2.4c-0.7-0.9-1.4-1.8-2.1-2.6c-0.1,1.2-0.5,2.5-0.2,3.6
	c1.4,4.6,3.8,9,4.3,13.7c0.8,9.1,0.6,18.2,0.7,27.3c0,0.8-0.8,2.4-1.2,2.4c-6,0.2-12.2-10.8-9.6-16.5c4.9-10.3,6.2-21,2.8-32
	c-1.8-5.9-3.4-11.9-5.5-17.7c-1-2.8-3-5.3-4.6-7.9c0.2,2.7,0.2,5.4,0.7,8c0.8,4.2,0.5,5.9-4.8,4.8c-3.7-0.8-8.4,0.4-11.7,2.3
	c-3.7,2.1-6.3,6.2-9.6,9.2c-1.5,1.3-3.6,1.9-5.5,2.8c0.5-2.1,0.2-4.9,1.5-6.1c5-4.8,10.7-8.9,15.6-13.7c4.7-4.7,8.9-9.9,13.2-15
	c0.3-0.4,0.1-1.2,0.1-1.9c-0.6,0.3-1.3,0.6-1.8,1c-6.5,4.5-13,8.8-19.5,13.4c-5.6,4-11.1,8.3-16.8,12.2c-0.8,0.5-3.2,0.1-3.7-0.7
	c-2.1-3.2-3.6-6.6-5.6-10c0,0,0,0.1,0,0.1c0-1.3-0.5-2.7-0.2-3.9c1.1-4.3,1.1-9.8,3.9-12.3c4.5-4.1,7.9,1.9,11.9,3.8
	c3.7,1.8,8.6,4.3,11.8,3.1c4.7-1.7,9.7-5.3,9.5-11.9c0,0,0,0,0,0c2.4-8.5,0.8-13.6-6.4-17.7c-4.9-2.8-10.3-4.7-15.5-6.9
	c-2.5-1.1-5-2.2-7.5-3.3c2.6,2.2,5.1,4.5,7.7,6.7c0.1,0.1,0.3,0.1,0.5,0.1c0,0-0.1,0-0.1,0c4.2,4,9.1,7.2,12.4,11.7
	c1.5,2-0.2,6.3-0.4,9.5c-3-0.4-6.1-0.4-8.9-1.3c-1.7-0.6-3.1-2.4-4.6-3.8c-5.3-5-11.1-5.8-17.3-2.1c-8.6,5.1-10.1,13.4-9.8,22.4
	c0,0.8,0,1.6,0.1,2.4c-0.8-0.3-1.8-0.5-2.5-1c-5.2-3.8-10.5-7.6-15.6-11.7c-12.9-10.4-11.7-20.7,2.3-29.6c4.9-3.1,8.2-9,12-13.8
	c2-2.5,3.3-5.7,5.4-8.2c0.7-0.9,3.3-1.6,3.7-1.1c1,1,1.9,3.2,1.5,4.2c-1.5,3.3-4,6.1-5.4,9.4c-2.2,5.2-4.8,10.5-5.3,16
	c-0.4,4.5,2.9,7.8,8.4,5.3l0,0c1.8-0.8,3.7-1.5,5.3-2.6c0.8-0.6,1.1-1.9,1.7-2.8c-0.9,0.2-1.8,0.6-2.8,0.7c-1.8,0.2-4.7,0.9-5.3,0.1
	C202.2,39,201.4,36,202.3,34.5z M103.7,120.6c1.2,4.8,2.3,9.7,3.2,14.5c0.2,1.1-0.3,3-1.1,3.4c-0.8,0.5-2.6,0-3.6-0.6
	c-4.8-2.9-5.6-14.7-0.7-19.1C102.1,119.3,103.5,119.8,103.7,120.6z M171.2,185.7c-0.7-1-0.7-2.6-1-4c1.6,0.2,3.6-0.2,4.6,0.6
	c5.6,4.3,12.9,7.5,11.8,16.6c-0.2,1.3,0.7,2.8,1.1,4.1c-1.2-1-2.5-1.9-3.7-3c-1.6-1.5-3.1-3-4.6-4.5c-0.1,0.1-0.2,0.2-0.4,0.3
	C176.4,192.5,173.7,189.2,171.2,185.7z M68.6,167.7c2.2,1,3.8,3.1,4.4,3.7c1.3,1.3,1.5,1.4,1.6,1.6c2.3,4.2,4.6,8.5,7,12.8
	c-6.4,0-12.9,0.6-19.2-0.4c-2.4-0.4-5.8-4.3-5.9-6.7c-0.2-4.4,1.8-8.9,2.8-13.4C62.4,166,65.7,166.4,68.6,167.7z M145.1,312.8
	c-1.3-0.1-3.7,0-3.8-0.3c-0.5-2.8-0.6-5.6-0.7-8.4c0-0.1,1.4-0.2,3.2-0.5C144.3,307,144.7,309.9,145.1,312.8z M91.9,235.5
	c1.5,5.2,3.2,10.4,4.3,15.7c0.2,0.9-1.9,3.3-2.7,3.2c-3.9-0.6-7.8-1.7-11.6-2.7c-1-0.3-1.8-1.2-2.6-1.8c0.7-0.6,1.6-1.1,2.2-1.9
	C85.1,243.9,88.5,239.7,91.9,235.5C91.9,235.5,91.9,235.5,91.9,235.5L91.9,235.5C92,235.5,92,235.5,91.9,235.5z M59.9,228.8
	c-1-1.5,0.3-6,1.9-7.4c1.6-1.3,5.1-0.5,7.7,0.1c1.8,0.4,3.4,2,6.4,4c0.4,2.1,1,5.1,1.6,8.1c-3.1,0.5-6.4,2.1-9.1,1.3
	C65.1,234,61.7,231.6,59.9,228.8z M90.5,222.7C90.5,222.7,90.6,222.7,90.5,222.7L90.5,222.7C90.5,222.7,90.5,222.7,90.5,222.7
	c-6.1-5.4-11.5-12-18.5-15.8c-10.1-5.6-21.2-1.9-27.4,6.9c-0.8,1.2-2.2,2-3.3,3c-1.3-1.9-3.9-3.9-3.8-5.8
	c0.3-10.7,1.2-21.4,1.9-32.2c0.1-1.5,0-3.2,0.7-4.4c1.8-2.9,4-5.5,6-8.2c0,2.6,0.1,5.3-0.1,7.9c-1,13.8,11.1,24.9,27.2,24.5
	c2.8-0.1,5.9,0,8.4-1c6.2-2.5,7.4,0.9,7.7,5.8C89.7,209.8,90.1,216.2,90.5,222.7z M164.7,275c-6.3-0.3-12.6-0.4-18.8-1
	c-1.6-0.2-3-2-5.5-3.7c2.1-0.3,2.8-0.4,3.4-0.4c2.2,0,4.4-0.3,6.4,0.2c4.9,1.2,9.8,2.8,14.7,4.2C164.9,274.5,164.8,275,164.7,275z
	 M179.3,229.6c6.6,4.3,10.6,12.8,15.2,19.7c2.1,3.2,2.8,7.3,4.1,11c-2.7-2.6-5.4-5.2-8.1-7.7c-0.4-0.3-0.7-0.7-1.1-1.1
	c0.3-0.5,0.6-1,0.9-1.4c-16.2-10.4-32.4-20.7-48.5-31.1c-5.8-3.7-9.7-8.7-8.5-16.1c1.4-8.2,8.6-11,14.7-5.4
	c4.6,4.2,8.7,9.1,12.4,14.2C165.8,218.6,171.6,224.5,179.3,229.6z M124.4,176.3c-4.5,2.6-6.8,9.3-9.4,14.5
	c-6.9,13.8-2.1,29.3,9.1,41.7c6.8,4.4,13.6,8.9,20.4,13.4c0.9,0.6,1.5,1.5,2.3,2.2c-0.9,0.2-1.9,0.4-2.8,0.6
	c-5.3,0.7-10.7,1-15.8,2.3c-6,1.5-9.5-0.9-11.1-6.1c-3.1-10-5.9-20.1-8.7-30.2c-2.1-7.9-4.2-15.8-5.9-23.7c-0.4-1.9,0.1-4.6,1.3-6.2
	c6.6-8.9,13.7-17.5,20.4-26.3c4.1-5.4,6.6-5.6,9.3,0.6c2.1,4.9,4.7,7.5,10.3,7.4c1.6,0,3.2,3,4.8,4.6c-1.7,0.6-3.3,1.5-5,1.8
	C137.1,174,129.6,173.3,124.4,176.3z M226.4,236.3c-0.5,0.7-0.2,2.1-0.8,2.7c-0.2,0.2-0.5,0.5-0.7,0.7c0,1.4-0.4,2.4-0.7,3.6l0-0.1
	c-0.5,1.9-0.7,3.5-1.5,5.6c0,0,0,0,0,0h-0.1c0,0,0,0,0,0c-0.2-0.2-0.5-0.5-0.7-0.7l0,0c-0.5-1-0.9-1.9-1.4-2.9c0,0,0,0,0,0
	c-0.1,0-0.1,0-0.2,0c-0.1,0.1-0.3,0.1-0.4,0.2c0.1-0.1,0.1-0.1,0.2-0.2c0.1,0,0.1,0,0.2,0c0.1,0,0.1-0.1,0.2-0.1c0,0,0,0,0,0
	c1.4-3.4,2.7-6.8,4.4-10.1c0.4-0.7,2.4-0.7,3.6-0.9C227.9,235,226.9,235.5,226.4,236.3z M212.6,226.2c0,0-2,0.7-5.6,1.8
	c0.1-5.6,0.1-9.2,0.3-12.8c0-0.4,1.1-0.7,1.6-1.1C210.2,218.2,211.5,222.2,212.6,226.2z M321.8,135.2c-0.2-0.3-0.1-0.8-0.2-1.3
	c0.4,0.2,0.9,0.2,1.3,0.5c1.6,1.1,3.2,2.3,4.6,3.3c1.9,2.5,3.7,4.6,5.2,7c0.5,0.8,0.4,2,0.6,3.1c-1-0.4-2.5-0.4-3-1.1
	C327.3,143,324.6,139.1,321.8,135.2z M243.7,113.8c-0.9-1.3-1.1-3.9-0.3-5.2c2-3.2,4.8-5.9,7.2-8.9c1.1,1.9,3.3,3.9,3.1,5.7
	c-0.4,5.8-1.7,11.6-2.7,17.4c0,0,0,0,0.1,0H251c0,0,0,0,0,0C248.5,119.9,245.8,117.1,243.7,113.8z M223.4,152.8
	c0.5-9.4,1.3-18.9,2-28.3c2.1,0.2,4.2,0.4,6.4,0.6c3.4,6.3,7.6,11.5,8.7,17.2c0.8,4.4-1.2,10.3-4,14c-1.4,1.9-7.4,0.5-11.2,0.1
	C224.4,156.4,223.3,154.1,223.4,152.8z M275.6,207.5c-0.9-1.6-1.1-3.5-1.6-5.2c1.8,0.6,3.7,1,5.4,1.8c1.3,0.6,2.3,1.8,3.6,2.9
	c1.1,1.4,2.9,2.8,3.4,4.5c0.4,1.4-0.7,3.3-1.1,5c-1.5-0.4-3.6-0.3-4.5-1.3C278.7,213,277.1,210.3,275.6,207.5z M205.1,178.9
	c0,1.3-0.4,2.5-0.6,3.8c-1.1-0.9-2.3-1.7-3.4-2.6c-1-0.9-1.9-1.9-2.8-2.8c0.1-0.1,0.1-0.2,0.2-0.3c-3.8-2.9-7.6-5.8-11.4-8.8
	c-0.9-0.7-1.6-1.6-2.3-2.4c1-0.5,2.1-0.8,3-1.4c5.2-3.6,10.3-7.3,15.4-11c0.7-0.5,1.4-1.1,2.1-1.7c0.1,0.6,0.4,1.2,0.4,1.8
	C205.4,162,205.3,170.4,205.1,178.9z M234.1,197.1c0.2,3.8,0.3,7.4,0.5,11c-0.6-0.1-1.6,0.1-1.7-0.2c-1.3-2.9-2.5-5.7-3.5-8.7
	c-0.2-0.7,0.3-2.3,0.6-2.4C231.3,196.6,232.6,197,234.1,197.1z M143,137.4c11.1-11.6,31.5-13.5,42.1-4.2c2.7,2.3,4.6,8,3.6,11.2
	c-0.7,2.6-6.2,4.5-9.8,5.3c-6.6,1.5-13.5,3.3-20,2.4c-5.4-0.8-10.6-5-15.3-8.5C142.4,142.6,143.1,138.7,143,137.4z M255,256.3
	c-0.7-0.1-1.5-1.5-1.8-2.4c-2-5.6-4.7-11.1-5.6-16.9c-0.5-3.2,2.1-6.9,3.2-10.4c1.9,0.8,3.9,1.3,5.6,2.4c2.7,1.7,5.1,3.7,7.9,5.8
	c1.1,1.7,2.7,3.5,3.5,5.6C271.1,248.6,264,257.5,255,256.3z M341.9,268.8c3.7,9.4,3.5,9.8-6.4,10.7c-3.6,0.3-7.3,0.7-10.9,0.9
	c-1.1,0.1-2.2-0.4-3.2-0.6c0.7-0.9,1.3-1.8,1.8-2.4c4.6-3.6,9-6.9,13.3-10.2C339.1,264.9,340.6,265.6,341.9,268.8z M383.3,294.8
	c-0.1-0.2-0.2-0.4-0.3-0.7c0.1,0,0.3,0,0.4,0C383.4,294.3,383.3,294.5,383.3,294.8z M396.7,224.7c3.8,13.4,1.5,26.1-8.2,37.2
	c-5.4,3.5-10.7,7.1-16.3,10.2c-1,0.5-4.3-1.2-5-2.6c-2.4-4.9-3.5-10.5-6.3-15.1c-2.9-4.9-2.5-8.4,1.1-12.8
	c7.3-8.8,12.2-18.9,14-30.5c0.2-1.1,3.3-2.8,4.9-2.6C390.3,209.7,394.5,217,396.7,224.7z M343,226.9c-7.2-9.4-10.1-19.7-6.2-31.4
	c1.2-3.7,2.4-4.9,6.1-1.7c3.7,3.2,8.5,5.1,12.5,8.1c1.5,1.1,3.4,3.9,3,5.3c-2.1,7-4.9,13.8-8.2,22.7
	C346.5,228.5,344,228.3,343,226.9z M347.1,173.8c1.3,0.5,2.8,0.9,4,1.7c1,0.7,1.9,1.9,2.4,3.1c1.1,2.7,2,5.5,3,8.3
	c-2.8-1.3-5.5-2.6-7.2-3.3c-1.7-2.1-3.2-3.1-3.2-4.2C346,177.5,346.7,175.6,347.1,173.8z M311.7,139.3c-0.1,2.8-0.2,5.3-0.3,7.7
	c-2-0.1-5.5,0.4-5.8-0.4c-1.2-3.1-1.4-6.6-2-10C305.9,137.4,308.2,138.1,311.7,139.3z M291.8,149.2c-1.9-7.8-3.5-15.7-5.1-23.6
	c0-0.2,1.7-1.2,2.1-1c2.3,1.3,4.4,3,7.4,5.1c-0.1,0.9-0.3,2.2-0.4,3.6c-0.1,4.8-0.2,9.6-0.3,14.5c0,1.1,0.2,2.2,0.3,3.3
	C294.4,150.5,292,150.1,291.8,149.2z M301.2,165.7c-0.4-0.7,1-3.2,1.9-3.4c3.1-0.6,6.3-1,9.4-0.7c4.3,0.3,10.8-0.2,12.3,2.1
	c3.6,5.7,5.3,12.3,0.3,19.4c-12.5,17.9-11.8,36.4-0.6,54.8c4,6.5,3.8,6.6,0,9.1c-8.2,7.2-16.4,14.5-24.7,21.7
	c-0.4,0.3-2.3-0.5-2.3-0.5c0.6-3.2,0.3-7.3,2.2-9.4c12.9-13.8,11.9-29.8,8.3-46.4c-0.4-1.7-1.1-3.7-0.7-5.3
	C311.3,192.4,308.2,178.8,301.2,165.7z M286.4,163.8c2.5,7.6,5.6,17,8.6,26.5c0,0.1-1.8,1.2-2.2,1c-3.4-2.1-7-4-9.9-6.6
	c-3.7-3.5-7.4-3.5-11.9-2.1c-1.1,0.3-4.1-1.7-4.2-2.7c-0.5-8.1-0.5-16.3-0.5-24.4c0-0.5,1.5-1.6,1.8-1.4
	C273.7,156.7,279,159.7,286.4,163.8z"/>
</svg>
