<?xml version="1.0" encoding="utf-8"?>
<!-- Generator: Adobe Illustrator 19.0.0, SVG Export Plug-In . SVG Version: 6.00 Build 0)  -->
<svg version="1.1" id="Layer_1" xmlns="http://www.w3.org/2000/svg" xmlns:xlink="http://www.w3.org/1999/xlink" x="0px" y="0px"
	 viewBox="-400 424.2 142.6 262.8" style="enable-background:new -400 424.2 142.6 262.8;" xml:space="preserve">
<g id="XMLID_10_">
	<path id="XMLID_2037_" d="M-314.3,618.2c1.6-1.6,1.7-4.1,0-5.3c-1.4-1-0.8-1.5,0-2.3c1.6-1.6,1.6-4.1-0.2-5.4
		c-1.1-0.8-0.7-1.1,0-1.8c1.8-1.8,1.9-4.3,0.1-5.6c-1.2-0.8-0.9-1.2-0.1-2c1.8-1.7,1.9-4.2,0.2-5.5c-1.3-0.9-0.8-1.3,0-2.1
		c1.7-1.8,1.7-4.3-0.2-5.6c-0.9-0.6-0.8-1-0.1-1.6c1.3-1.2,2-2.6,1.2-4.3c-0.5-0.9-1.7-1.6-1.7-2.3c0-0.8,1.1-1.6,1.7-2.4
		c0.1-0.2,0.1-0.4,0.2-0.6c0.6-2.1-0.5-3.5-2.1-4.5c0.6-0.6,1.1-1.1,1.5-1.7c1.2-1.6,1.1-3.8-0.4-4.9c-1.1-0.8-1.1-1.2-0.1-2
		c1.8-1.6,1.8-4.4,0.1-5.5c-1.4-0.9-0.8-1.3,0-2c1.7-1.7,1.7-4.3,0-5.5c-1.3-0.9-0.7-1.2,0-1.9c1.8-1.8,1.8-4.3-0.1-5.6
		c-1-0.7-0.8-1-0.1-1.7c2.1-2,2-4.3-0.2-6c-0.7-0.5-0.5-0.7,0-1.2c2.5-2.8,2.4-4.5-0.6-6.9c0.5-0.5,0.9-0.9,1.3-1.4
		c1.4-1.6,1.4-4-0.1-5.1s-0.9-1.5,0-2.4c1.7-1.7,1.5-4.2-0.4-5.5c-0.9-0.6-0.8-0.9-0.1-1.5c1.1-0.9,1.9-2.1,1.5-3.5
		c-0.4-1.2-1.2-2.3-1.8-3.2c0.6-1.1,1.5-2.4,1.8-3.8c0.4-1.7-0.9-2.8-2.3-3.7c3.6-3.3,2.6-5.9-0.3-7.7c0.6-0.5,1.3-0.8,1.7-1.3
		c1.4-1.6,1.3-4-0.4-5.2c-1.1-0.8-0.8-1.1-0.1-1.9c1.8-1.8,1.9-4.3,0.1-5.6c-1.2-0.9-0.7-1.2,0-1.9c1.9-1.9,1.7-4.4-0.4-5.8
		c-0.8-0.6-0.5-0.7-0.1-1.3c0.6-1,1.7-2.2,1.6-3.3c-0.1-1.3-1.1-2.5-1.7-3.7c-0.3,0-0.2-0.2,0-0.3c2.6-2.7,2.5-3.9-0.1-6.6
		c-0.2-0.2-0.1-0.8,0-0.9c1.2-0.9,2-2,1.9-3.6s-0.8-2.7-2.4-3.3c0.3-0.3,0.4-0.5,0.5-0.7c2.6-2.8,2.5-3.9,0-6.6
		c-0.2-0.2-0.1-0.8,0.1-1c2.5-3,2.4-4.2-0.3-6.8c-1.2,0-2.4,0-3.6,0c-1.7,1.6-3.2,3.6-5,5.2c-0.4,0.4-1.5,0-2.3,0
		c0.1-0.8-0.1-1.7,0.2-2.3c0.7-1.1,1.7-1.9,2.6-2.9c-1,0-1.9,0-2.9,0c-0.4,0.6-0.8,1.1-1.3,1.6c-1.4,1.5-1.5,3.9,0.1,5
		c1.4,1,0.9,1.5,0,2.4c-1.6,1.6-1.7,3.9,0.1,5.2c1.2,0.9,0.9,1.3,0.1,2.1c-1.7,1.7-1.8,4-0.1,5.4c1.2,0.9,1.1,1.4,0,2.2
		c-1.7,1.4-1.7,3.9,0,5.2c1.2,0.9,1.1,1.3,0.1,2.2c-1.8,1.7-1.9,4.1-0.1,5.4c1.2,0.9,0.8,1.3,0,2.1c-1.8,1.8-1.8,4.1,0.1,5.5
		c1.2,0.8,0.8,1.2,0,2c-1.7,1.6-1.9,4.2-0.2,5.4c1.6,1.1,0.8,1.6,0,2.4c-1.5,1.6-1.6,3.9,0,5.1c1.4,1,0.8,1.5,0,2.4
		c-1.6,1.7-1.6,4,0.1,5.2c1.3,0.9,0.8,1.3,0,2.1c-1.7,1.7-1.8,4.1-0.1,5.4c1.4,1,0.7,1.5,0,2.2c-1.6,1.7-1.7,4,0,5.2
		c1.3,0.9,0.9,1.4,0,2.2c-1.7,1.6-1.7,4.1,0,5.2c1.5,1,0.8,1.5,0,2.3c-1.6,1.6-1.6,4,0.2,5.4c1.1,0.8,0.7,1.2,0,1.9
		c-2,2-1.9,4.1,0.2,5.8c1,0.8,0.4,1.1-0.1,1.6c-1.6,1.7-2,3.4-0.9,4.9c0.5,0.6,1.1,1.1,1.9,1.9c-0.5,0.4-1.1,0.8-1.6,1.3
		c-1.4,1.5-1.3,3.8,0.3,5c1.2,0.9,0.8,1.3,0,2.1c-1.7,1.7-1.8,4.1-0.1,5.4c1.3,0.9,0.8,1.4,0,2.2c-1.6,1.6-1.7,4.1-0.1,5.2
		c1.5,1,0.8,1.5,0,2.3c-1.5,1.5-1.6,3.9,0,5.1c1.3,1,0.8,1.5,0,2.4c-1.6,1.6-1.5,3.9,0.3,5.2c1.2,0.9,0.9,1.3,0,2.1
		c-1.7,1.7-1.9,4.2-0.2,5.4c1.5,1,0.7,1.5,0,2.2c-1.5,1.5-1.6,4,0,5.1c1.6,1.1,0.8,1.6-0.1,2.5c-1.6,1.7-1.7,4,0.1,5.2
		c1.3,0.9,0.8,1.4,0,2.1c-1.7,1.7-1.8,4.1,0,5.4c1.2,0.9,0.9,1.3,0.1,2.1c-1.7,1.7-1.8,4-0.1,5.3c1.3,1,0.8,1.4,0,2.2
		c-1.7,1.6-1.7,4,0,5.2c1.2,0.9,1,1.4,0.1,2.2c-1.7,1.6-1.7,4.2,0,5.3c1.3,0.8,0.9,1.3,0.1,2c-1.7,1.7-1.9,4-0.2,5.4
		c1.4,1,0.8,1.5,0,2.4c-1.6,1.6-1.6,3.9,0,5.1c1.3,1,0.9,1.5,0,2.4c-1.6,1.6-1.7,4.1,0.1,5.2c1.5,1,0.7,1.5,0,2.2
		c-1.6,1.6-1.7,4,0,5.3c1.2,0.9,0.9,1.4,0.1,2.2c-1.7,1.7-1.7,4,0,5.3c1.1,0.8,0.9,1.2,0.1,2c-1.8,1.8-1.9,4.3,0,5.6
		c1.1,0.8,0.8,1.2,0.1,1.9c-2,2-2,4.1,0.2,5.8c0.9,0.7,0.5,1.1-0.1,1.6c-1.6,1.7-2,3.4-1,4.9c0.4,0.6,0.9,1.2,1.4,1.5
		c1.2,0,2.4,0,3.6,0c1.6-1.6,3.2-3.3,4.8-5c0.7-0.8,1.7-1.2,2.5-0.3s0.8,1.9-0.2,2.8c-0.8,0.7-1.5,1.8-2.2,2.5c0.9,0,1.7,0,2.6,0
		c0.6-0.6,1.1-1.3,1.6-2c1.1-1.4,1-3.6-0.5-4.6c-1.3-0.9-1-1.3-0.1-2.2c1.7-1.7,1.7-4.2-0.1-5.5c-1-0.7-0.9-1-0.1-1.8
		c1.8-1.7,2-4.4,0.1-5.6c-1.4-0.9-0.8-1.3,0-2c1.7-1.7,1.8-4.3,0-5.5c-1.3-0.8-0.7-1.2-0.1-1.9c2-2,1.8-4.1-0.4-5.9
		c-0.7-0.6-0.4-0.7,0-1.2c2.5-2.7,2.4-4.5-0.8-7c0.5-0.4,1-0.7,1.4-1.1c1.6-1.6,1.6-4.2-0.2-5.4c-1.3-0.8-0.7-1.2,0-1.9
		c1.7-1.7,1.9-4.2,0.1-5.5c-1.3-0.9-0.8-1.3,0-2.1c1.7-1.7,1.7-4.2,0-5.4C-315.8,619.4-315.1,618.9-314.3,618.2z M-315.8,601.8
		c-2.6,2.6-5.2,5.2-7.8,7.7c-0.4,0.4-0.9,0.5-1.5,0.8c-0.5-0.4-1.1-0.6-1.2-1c-0.2-0.6-0.2-1.4,0.2-1.7c2.7-2.8,5.5-5.6,8.4-8.3
		c0.4-0.4,1.6-0.2,2.1,0.1C-314.8,600-315,601-315.8,601.8z M-315.7,594.2c-2.6,2.6-5.2,5.2-7.9,7.8c-0.3,0.3-0.8,0.5-1.4,0.8
		c-0.5-0.4-1.1-0.7-1.3-1.1c-0.2-0.5-0.1-1.4,0.2-1.7c2.6-2.8,5.3-5.4,8.1-8.1c0.7-0.7,1.6-0.8,2.3-0.1
		C-314.8,592.6-314.9,593.4-315.7,594.2z M-315.7,541.6c-2.7,2.7-5.3,5.3-8,8c-0.3,0.3-0.7,0.4-1.2,0.7c-0.5-0.4-1.2-0.7-1.3-1.1
		c-0.1-0.6,0-1.5,0.3-1.9c1.2-1.4,2.5-2.6,3.7-3.8c1.4-1.4,2.8-2.7,4.1-4.1c0.7-0.8,1.6-1,2.4-0.2
		C-314.8,539.9-315,540.9-315.7,541.6z M-315.7,511.6c-2.6,2.7-5.2,5.2-7.9,7.8c-0.3,0.3-0.8,0.5-1.3,0.8c-0.5-0.4-1.2-0.7-1.3-1.1
		c-0.1-0.6,0-1.5,0.3-1.9c1.6-1.7,3.2-3.3,4.9-5c1-1,2-2,3-2.9c0.7-0.7,1.6-1,2.4-0.2C-314.8,509.9-314.9,510.8-315.7,511.6z
		 M-315.7,486.7c0.4,0.5,0.5,1.8,0.1,2.2c-2.6,2.8-5.3,5.5-8.1,8.1c-0.3,0.3-0.8,0.4-1.4,0.6c-0.4-0.4-1.1-0.6-1.2-1
		c-0.2-0.6-0.1-1.4,0.2-1.7c2.7-2.8,5.4-5.5,8.2-8.2C-317.4,486.3-316,486.3-315.7,486.7z M-315.7,481.4c-1.1,1.4-2.5,2.6-3.7,3.8
		c-1.4,1.4-2.7,2.8-4.1,4.1c-0.4,0.4-0.9,0.6-1.5,0.9c-0.5-0.4-1.1-0.7-1.3-1.2c-0.2-0.5-0.2-1.3,0.2-1.6c2.8-2.8,5.6-5.7,8.5-8.4
		c0.4-0.3,1.8-0.2,1.9,0.1C-315.4,479.8-315.3,480.9-315.7,481.4z M-315.6,473.8c-2.7,2.8-5.4,5.5-8.2,8.3c-0.3,0.3-0.6,0.3-1.2,0.6
		c-0.4-0.4-1.1-0.6-1.2-1.1c-0.2-0.6-0.1-1.5,0.3-1.9c1.2-1.4,2.6-2.6,3.9-3.9c1.4-1.4,2.8-2.7,4.1-4.1c0.7-0.7,1.7-0.9,2.2-0.1
		C-315.3,472.1-315.2,473.4-315.6,473.8z M-314.8,442.7c-0.5,0.7-0.7,1.2-1.1,1.6c-2.3,2.4-4.7,4.7-7.1,7.1
		c-0.2,0.2-0.4,0.4-0.6,0.6c-0.8,0.6-1.9,0.7-2.4-0.1c-0.3-0.6-0.2-1.8,0.2-2.3c1.4-1.7,2.9-3.1,4.5-4.6c1.2-1.2,2.3-2.4,3.6-3.4
		c0.4-0.3,1.3-0.4,1.7-0.2C-315.5,441.5-315.2,442.2-314.8,442.7z M-326,434.8c2.8-2.9,5.6-5.7,8.5-8.4c0.3-0.3,1.8-0.1,2,0.3
		c0.3,0.6,0.2,1.7-0.2,2.2c-1.3,1.6-2.8,2.9-4.3,4.4c-1.1,1.1-2.3,2.3-3.5,3.4c-0.4,0.4-0.9,0.6-1.5,0.9c-0.5-0.5-1.1-0.7-1.3-1.2
		C-326.4,436-326.4,435.2-326,434.8z M-325.8,442c2.6-2.6,5.2-5.3,7.9-7.8c0.4-0.4,1.3-0.5,1.9-0.4c0.4,0.1,0.7,0.8,1.1,1.3
		c-0.4,0.6-0.5,1.1-0.9,1.5c-2.6,2.6-5.2,5.2-7.8,7.8c-0.8,0.8-1.7,0.9-2.4,0.1C-326.8,443.6-326.6,442.7-325.8,442z M-325.8,457.1
		c1.4-1.6,3-3.1,4.5-4.7c1-1,2-2.1,3.1-3.1c0.8-0.7,1.7-1.1,2.6-0.3c0.9,0.9,0.6,1.8-0.2,2.7c-2.5,2.5-5,5-7.5,7.4
		c-0.4,0.4-0.9,0.6-1.6,1c-0.5-0.4-1.3-0.7-1.3-1.1C-326.3,458.5-326.2,457.5-325.8,457.1z M-326,464.8c2.7-2.8,5.5-5.6,8.4-8.3
		c0.4-0.4,1.8-0.2,2,0.2c0.3,0.6,0.3,1.7-0.1,2.2c-1.2,1.5-2.6,2.7-3.9,4c-1.3,1.3-2.5,2.5-3.8,3.7c-0.4,0.4-0.9,0.6-1.5,1
		c-0.5-0.4-1.2-0.6-1.3-1.1C-326.4,466.1-326.3,465.2-326,464.8z M-325.8,472.1c2.6-2.6,5.2-5.3,7.9-7.8c0.4-0.4,1.3-0.5,1.9-0.4
		c0.4,0.1,0.7,0.8,1.1,1.3c-0.4,0.6-0.6,1.1-0.9,1.5c-2.5,2.6-5.1,5.1-7.6,7.7c-0.8,0.8-1.7,1-2.6,0.2
		C-326.8,473.6-326.6,472.8-325.8,472.1z M-325.7,501.9c2.5-2.5,5-5.1,7.6-7.5c0.5-0.4,1.3-0.6,2-0.6c0.4,0,0.7,0.8,1.2,1.3
		c-0.4,0.6-0.7,1.3-1.1,1.7c-2.4,2.5-4.9,4.9-7.3,7.3c-0.8,0.8-1.7,1.3-2.7,0.4C-326.9,503.7-326.4,502.7-325.7,501.9z
		 M-325.8,509.5c2.6-2.6,5.2-5.3,7.9-7.8c0.4-0.4,1.3-0.5,1.9-0.3c0.4,0.1,0.7,0.8,1.1,1.3c-0.4,0.6-0.6,1.1-0.9,1.5
		c-2.5,2.6-5.1,5.1-7.6,7.6c-0.8,0.8-1.7,1-2.5,0.1C-326.8,511.2-326.5,510.3-325.8,509.5z M-326,524.9c2.7-2.8,5.5-5.6,8.4-8.3
		c0.4-0.3,1.8-0.2,2,0.2c0.3,0.6,0.3,1.7-0.1,2.2c-1.3,1.6-2.9,3-4.4,4.5c-1.1,1.1-2.2,2.2-3.3,3.3c-0.4,0.4-0.8,0.6-1.5,1
		c-0.5-0.4-1.2-0.6-1.3-1.1C-326.4,526.2-326.3,525.2-326,524.9z M-326,534.5c-0.7-0.8-0.6-1.7,0.2-2.4c2.6-2.6,5.2-5.2,7.8-7.7
		c0.3-0.3,0.8-0.5,1.3-0.8c0.5,0.4,1.2,0.6,1.3,1c0.1,0.6,0.1,1.6-0.3,2c-1.6,1.8-3.4,3.5-5.1,5.2c-0.9,0.9-1.8,1.8-2.8,2.7
		C-324.3,535.2-325.2,535.3-326,534.5z M-326,540c2.7-2.8,5.5-5.6,8.3-8.3c0.4-0.4,1.7-0.3,2.1,0.1c0.4,0.4,0.5,1.7,0.1,2.1
		c-2.6,2.8-5.4,5.5-8.2,8.2c-0.3,0.3-0.8,0.4-1,0.4C-326.3,542.3-327,540.9-326,540z M-325.7,554.5c2.6-2.5,5.1-5.1,7.7-7.6
		c0.4-0.4,1.4-0.5,2-0.4c0.4,0.1,0.7,0.8,1,1.3c-0.4,0.6-0.6,1.1-0.9,1.5c-2.5,2.5-5,5-7.5,7.5c-0.8,0.8-1.7,1.2-2.7,0.2
		C-326.9,556.1-326.4,555.3-325.7,554.5z M-325.9,562.2c2.7-2.6,5.2-5.2,7.9-7.8c0.4-0.4,1.3-0.6,1.8-0.5c0.5,0.1,0.8,0.8,1.2,1.3
		c-0.4,0.6-0.5,1.1-0.8,1.4c-2.6,2.6-5.2,5.2-7.9,7.8c-0.8,0.8-1.7,0.8-2.4,0.1C-326.7,563.8-326.7,563-325.9,562.2z M-326.2,571.8
		c-0.1-0.7,0.1-1.7,0.5-2.2c1.9-2.1,3.9-4,5.9-6c0.6-0.6,1.2-1.2,1.8-1.8c0.8-0.8,1.7-1,2.3-0.1c0.4,0.5,0.4,1.8,0,2.2
		c-2.6,2.8-5.3,5.4-8.1,8.1c-0.3,0.3-0.7,0.4-1.3,0.7C-325.4,572.5-326.2,572.2-326.2,571.8z M-325.7,576.9c2.5-2.5,5-5,7.6-7.4
		c0.5-0.5,1.3-0.6,2-0.9c0,0,0-0.1,0-0.1c0,0,0,0,0,0.1c1.3,1.6,1.3,2.1-0.2,3.6c-2.4,2.4-4.7,4.7-7.1,7.1c-0.9,0.9-1.8,1.2-2.8,0.3
		C-327.1,578.6-326.5,577.7-325.7,576.9z M-326.1,585c2.7-2.8,5.5-5.6,8.4-8.3c0.4-0.4,1.8-0.2,2.2,0.2c0.4,0.4,0.3,1.7-0.1,2.2
		c-2.6,2.8-5.3,5.4-8,8c-0.3,0.3-0.8,0.5-1.4,0.8c-0.5-0.4-1.1-0.7-1.3-1.1C-326.5,586.3-326.5,585.4-326.1,585z M-326.1,592.6
		c2.8-2.9,5.6-5.7,8.5-8.4c0.4-0.3,1.8-0.1,2,0.2c0.3,0.6,0.3,1.8-0.1,2.2c-1.6,1.8-3.4,3.5-5.1,5.2c-0.9,0.9-1.8,1.8-2.8,2.7
		c-0.3,0.3-0.8,0.5-1.3,0.9c-0.5-0.4-1.1-0.7-1.3-1.2C-326.4,593.8-326.4,592.9-326.1,592.6z M-325.9,614.8c2.7-2.7,5.3-5.3,8-8
		c0.4-0.4,1.2-0.5,1.7-0.3c0.5,0.1,0.7,0.8,1.2,1.3c-0.4,0.6-0.6,1.2-1,1.6c-2.5,2.6-5.1,5.1-7.7,7.6c-0.7,0.7-1.6,1-2.4,0.2
		C-326.8,616.4-326.6,615.5-325.9,614.8z M-326.1,630.1c2.8-2.9,5.6-5.7,8.5-8.4c0.3-0.3,1.7-0.2,1.9,0.2c0.4,0.5,0.4,1.6,0.1,2.1
		c-0.6,1-1.6,1.7-2.4,2.6c-1.7,1.7-3.5,3.5-5.2,5.2c-0.5,0.4-1,0.7-1.7,1.2c-0.5-0.5-1.1-0.7-1.3-1.2
		C-326.4,631.3-326.4,630.5-326.1,630.1z M-315.7,676.7c-0.8,1.1-1.8,2.1-2.8,3c-1.7,1.7-3.4,3.4-5.2,5.1c-0.3,0.3-0.8,0.5-1.2,0.6
		c-0.2,0.2-0.5,0.4-0.7,0.6c-0.2-0.5-0.5-1-0.6-1.5c-0.1-0.6-0.2-1.4,0.1-1.7c2.8-2.9,5.6-5.7,8.5-8.4c0.3-0.3,1.7-0.2,1.9,0.2
		C-315.4,675.1-315.3,676.2-315.7,676.7z M-315.9,669.5c-2.3,2.4-4.7,4.7-7.1,7.1c-0.2,0.2-0.3,0.3-0.5,0.5
		c-0.8,0.8-1.7,1.1-2.5,0.2c-0.9-0.9-0.5-1.8,0.3-2.5c1.5-1.5,3-3,4.5-4.5c1.1-1.1,2.1-2.1,3.2-3.2c0.4-0.4,0.9-0.6,1.5-0.9
		c0.5,0.4,1.2,0.8,1.3,1.2C-315.3,668.1-315.5,669-315.9,669.5z M-315.6,661.7c-1.9,1.9-3.8,3.8-5.7,5.7c-0.7,0.7-1.4,1.5-2.2,2.1
		c-0.4,0.4-0.9,0.6-1.5,0.9c-0.5-0.4-1.1-0.7-1.3-1.2c-0.2-0.5-0.2-1.3,0.1-1.6c2.7-2.8,5.5-5.6,8.4-8.3c0.4-0.4,1.6-0.3,2.1,0.1
		C-314.8,660-314.9,661-315.6,661.7z M-314.9,652.9c-0.4,0.6-0.6,1.2-1,1.6c-2.5,2.5-5.1,5-7.5,7.5c-0.8,0.8-1.7,1.2-2.5,0.3
		c-0.9-0.9-0.6-1.7,0.2-2.6c2.6-2.6,5.1-5.2,7.8-7.7c0.4-0.4,1.3-0.5,1.9-0.4C-315.6,651.7-315.3,652.4-314.9,652.9z M-315.6,644.4
		c0.9,0.9,0.5,1.8-0.3,2.6c-2.6,2.6-5.1,5.1-7.7,7.6c-0.4,0.4-0.9,0.5-1.5,0.9c-0.5-0.4-1.2-0.7-1.3-1.1c-0.1-0.6,0-1.4,0.4-1.9
		c1.1-1.3,2.3-2.4,3.5-3.6c1.4-1.4,2.8-2.8,4.2-4.2C-317.3,643.8-316.4,643.6-315.6,644.4z M-314.9,638c-0.4,0.6-0.6,1.2-1.1,1.6
		c-2.4,2.5-4.9,4.9-7.3,7.3c-0.8,0.8-1.8,1.4-2.8,0.4c-0.9-1-0.4-1.8,0.5-2.6c2.5-2.4,4.9-5,7.4-7.4c0.5-0.5,1.4-0.6,2.1-0.5
		C-315.6,636.7-315.3,637.4-314.9,638z M-314.9,630.4c-0.4,0.7-0.7,1.2-1.1,1.6c-2.5,2.5-5,4.9-7.4,7.4c-0.8,0.8-1.7,1.2-2.5,0.3
		c-1-0.9-0.5-1.8,0.3-2.7c2.5-2.5,5-5.1,7.6-7.5c0.5-0.4,1.4-0.6,2-0.6C-315.7,629.1-315.3,629.9-314.9,630.4z M-315.9,617
		c-2.5,2.5-5,5-7.5,7.5c-0.8,0.8-1.7,1-2.5,0.2c-0.9-0.9-0.5-1.7,0.3-2.5c2.5-2.5,5-5.1,7.5-7.5c0.5-0.5,1.4-0.6,2.1-0.6
		c0.4,0,0.7,0.8,1.1,1.3C-315.3,616-315.6,616.6-315.9,617z"/>
	<path id="XMLID_2266_" d="M-387,666.4c-3.5,4.4-7,8.8-10.5,13.1c-1.8,2.3-2.5,4.6-1.6,7.5c0.6,0,1.3,0,1.9,0c0.4-0.3,0.7-0.9,1-1.4
		c3.2-4,6.4-7.9,9.5-11.8c1.7-2.1,2.3-4.5,1.3-7.1C-385.7,665.5-386.1,665.2-387,666.4z"/>
	<path id="XMLID_2299_" d="M-388.4,424.2c-2.2,0-4.3,0-6.5,0c-1.3,1.9-2.8,3.7-4,5.7c-1.2,2.1-0.9,4.3,0.6,6.5
		C-394.9,432.2-391.6,428.4-388.4,424.2z"/>
	<path id="XMLID_2305_" d="M-386.9,677.2c-0.9,1.3-1.9,2.4-2.9,3.6c-1.6,2.1-3.2,4.3-4.8,6.2c2.2,0,4.3,0,6.5,0
		c0.6-1,1.2-1.8,1.8-2.8c1.4-2.1,2-4.4,0.9-6.8C-385.8,676.5-386.1,676.2-386.9,677.2z"/>
	<path id="XMLID_2373_" d="M-397.5,424.2c-0.6,0-1.1,0-1.6,0c0.3,0.3,0.5,0.8,0.9,1.3C-397.9,425-397.7,424.5-397.5,424.2z"/>
	<path id="XMLID_3562_" d="M-386.8,436.1c-3.7,4.6-7.4,9.2-11,13.9c-1.7,2.2-2.2,4.6-1.1,7.3c0.3,0.8,0.6,1.2,1.4,0.3
		c3.6-4.6,7.3-9.1,10.9-13.8c1-1.3,1.5-3,2.1-4.3c-0.4-1.4-0.6-2.3-0.9-3.2C-385.8,435.3-386.2,435.4-386.8,436.1z"/>
	<path id="XMLID_3563_" d="M-386.7,501.8c-3.8,4.7-7.6,9.4-11.3,14.2c-1.6,2-1.9,4.4-1,6.9c0.4,1.1,0.8,1.1,1.6,0.2
		c3.6-4.5,7.3-9,10.8-13.5c1-1.3,1.5-3,2.1-4.3c-0.4-1.4-0.6-2.3-0.9-3.2S-386.1,501-386.7,501.8z"/>
	<path id="XMLID_3564_" d="M-385.5,545.7c-0.4-0.8-0.7-0.8-1.2-0.1c-1.6,2-3.2,4-4.8,5.9c-2.3,2.9-4.8,5.9-6.9,8.9
		c-1.6,2.3-1.5,4.8,0.2,7.5c4.2-5.3,8.3-10.4,12.3-15.6C-384.5,550.3-384.3,548-385.5,545.7z"/>
	<path id="XMLID_3565_" d="M-386.4,454.3c2.1-2.8,2.1-5.8,0.2-8c-1.6,2-3.2,3.9-4.8,5.9c-2.3,2.8-4.5,5.6-6.7,8.5
		c-2.2,2.9-2.4,5.7-0.6,8.5c1.9-2.3,3.7-4.5,5.5-6.8C-390.6,459.8-388.4,457.1-386.4,454.3z"/>
	<path id="XMLID_3566_" d="M-398.2,622.7c4.1-5.2,8.2-10.3,12.2-15.5c1.5-1.9,1.7-4.3,0.6-6.6c-0.4-0.9-0.7-0.9-1.3-0.2
		c-3.8,4.7-7.6,9.4-11.3,14.1C-400,617.1-400,620.1-398.2,622.7z"/>
	<path id="XMLID_3567_" d="M-397.3,654.4c3.6-4.5,7.2-9,10.8-13.5c2.1-2.7,2.3-5.6,0.4-8.5c-4.1,5.2-8.2,10.2-12.1,15.3
		c-1.4,1.8-1.7,4-0.8,6.3C-398.6,655.2-398.3,655.6-397.3,654.4z"/>
	<path id="XMLID_3568_" d="M-386.9,534.9c-3.6,4.6-7.3,9-10.9,13.6c-1.7,2.2-2.3,4.7-1.1,7.4c0.4,0.9,0.7,1,1.4,0.2
		c3.6-4.6,7.4-9.1,10.9-13.8c1-1.3,1.5-3,2-4.3c-0.4-1.3-0.6-2.1-0.8-2.9C-385.7,534-386.1,533.9-386.9,534.9z"/>
	<path id="XMLID_3569_" d="M-386.7,468.9c-3.7,4.7-7.5,9.3-11.2,14c-2,2.6-2.1,5.5-0.3,8.3c4.1-5.1,8.2-10.1,12-15.2
		c1.6-2,1.8-4.4,0.7-6.9C-385.7,468.5-385.9,467.9-386.7,468.9z"/>
	<path id="XMLID_3570_" d="M-398.3,447.4c1.6-2,3.1-3.9,4.7-5.8c2.3-2.9,4.7-5.8,7-8.7c1.7-2.3,2.5-4.7,1.3-7.5
		c-0.3-0.8-0.7-1.1-1.4-0.2c-3.8,4.7-7.6,9.4-11.2,14.1C-399.9,441.7-400.1,444.4-398.3,447.4z"/>
	<path id="XMLID_3571_" d="M-386.7,611.3c-1.4,1.7-2.8,3.5-4.1,5.2c-2.3,2.8-4.6,5.6-6.8,8.5c-2.3,2.9-2.5,5.9-0.6,8.6
		c4.1-5.2,8.3-10.3,12.2-15.5c1.5-1.9,1.6-4.3,0.5-6.6C-385.9,610.7-386.1,610.6-386.7,611.3z"/>
	<path id="XMLID_3572_" d="M-386.7,490.8c-3.8,4.8-7.6,9.5-11.4,14.3c-1.9,2.5-1.9,5.2-0.2,8c4-5.1,8-9.9,11.9-14.9
		c1.6-2.1,2.1-4.6,0.9-7.1C-385.7,490.4-386,489.9-386.7,490.8z"/>
	<path id="XMLID_3573_" d="M-398.2,480.1c4-5,8-9.8,11.9-14.9c1.6-2,2-4.5,0.9-7c-0.4-0.8-0.7-1.1-1.4-0.2
		c-3.8,4.7-7.6,9.4-11.3,14.1C-400,474.7-400,477.8-398.2,480.1z"/>
	<path id="XMLID_3574_" d="M-386.1,511.9c-4.2,5.2-8.3,10.3-12.3,15.6c-1.8,2.4-1.6,5.2,0.2,7.5c4.1-5.2,8.3-10.4,12.2-15.7
		C-384.2,517.1-384.4,514.5-386.1,511.9z"/>
	<path id="XMLID_3575_" d="M-385.4,556.7c-0.4-0.9-0.7-0.9-1.3-0.2c-3.8,4.8-7.6,9.5-11.4,14.3c-1.9,2.5-1.8,5.4-0.1,7.9
		c4-5,8.1-10,11.9-15C-384.7,561.7-384.2,559.3-385.4,556.7z"/>
	<path id="XMLID_3576_" d="M-392.7,659.6c2.3-2.8,4.6-5.7,6.7-8.6c1.6-2.3,1.7-4.9-0.1-7.5c-1.1,1.3-2,2.5-3,3.7
		c-2.9,3.6-5.8,7.2-8.7,10.8c-1.8,2.3-2.6,5.9-0.4,8.4C-396.4,664.1-394.5,661.8-392.7,659.6z"/>
	<path id="XMLID_3577_" d="M-386.2,654.7c-4.1,5.1-8.3,10.1-12.2,15.2c-1.7,2.2-1.6,4.8,0.1,7.5c4.1-5.1,8.1-9.9,11.9-14.9
		c1.9-2.5,2.2-5.2,0.5-8C-386,654.6-386.2,654.6-386.2,654.7z"/>
	<path id="XMLID_3578_" d="M-386,486.6c1.7-2.2,1.7-4.8-0.1-7.5c-4.2,5.3-8.4,10.3-12.2,15.5c-1.7,2.3-1.7,4.9,0.1,7.6
		C-394.1,496.9-389.9,491.8-386,486.6z"/>
	<path id="XMLID_3579_" d="M-386.7,523.7c-3.8,4.8-7.7,9.5-11.4,14.4c-1.8,2.4-1.9,5.1-0.2,7.9c1.7-2,3.2-3.9,4.7-5.8
		c2.3-2.9,4.7-5.8,7-8.7c1.8-2.3,2.5-4.9,1.2-7.7C-385.8,523.1-386.1,522.9-386.7,523.7z"/>
	<path id="XMLID_3580_" d="M-397.7,600c3.8-4.7,7.6-9.4,11.3-14.1c1.6-2.1,2.1-4.4,1.1-7c-0.4-1-0.7-1.4-1.6-0.3
		c-1.4,1.8-2.9,3.6-4.3,5.4c-2.3,2.8-4.7,5.7-6.8,8.6c-2,2.6-2,5.6-0.1,8.1C-398,600.5-397.8,600.2-397.7,600z"/>
	<path id="XMLID_3581_" d="M-386.9,589.6c-0.5,0.7-1.1,1.4-1.6,2c-3,3.7-6,7.4-9,11.2c-2.4,3-2.6,5.7-0.8,8.8c1.6-2,3.1-3.8,4.6-5.7
		c2.7-3.4,5.4-6.8,7.9-10.4c1.2-1.7,1.2-3.7,0.3-5.7C-385.8,589-386.2,588.6-386.9,589.6z"/>
	<path id="XMLID_3582_" d="M-397.6,588.9c3.7-4.6,7.4-9.2,11.1-13.9c2.1-2.8,2.2-5.2,0.4-8.3c-1.1,1.4-2,2.6-3,3.8
		c-2.9,3.6-5.9,7.2-8.7,10.8c-1.7,2.2-2.2,4.6-1.1,7.3C-398.6,589.5-398.3,589.8-397.6,588.9z"/>
	<path id="XMLID_3583_" d="M-398.3,636.8c-1.8,2.5-1.7,5.6,0.1,7.6c3.9-4.9,7.9-9.7,11.7-14.6c2.1-2.8,2.1-5.5,0.3-8.3
		C-390.3,626.7-394.4,631.7-398.3,636.8z"/>
</g>
</svg>
