<?xml version="1.0" encoding="utf-8"?>
<!-- Generator: Adobe Illustrator 19.0.0, SVG Export Plug-In . SVG Version: 6.00 Build 0)  -->
<svg version="1.1" id="Layer_1" xmlns="http://www.w3.org/2000/svg" xmlns:xlink="http://www.w3.org/1999/xlink" x="0px" y="0px"
	 viewBox="-199 201 200 200" style="enable-background:new -199 201 200 200;" xml:space="preserve">
<style type="text/css">
	.st0{fill:none;stroke:#000000;stroke-miterlimit:10;}
</style>
<line id="XMLID_14_" class="st0" x1="-185.3" y1="384.8" x2="-121.7" y2="321.2"/>
<line id="XMLID_18_" class="st0" x1="-76.3" y1="280.8" x2="-12.7" y2="217.2"/>
<path d="M-92.9,262.7l5.7,24.2l-4.3,1l-5.7-24.2C-95.7,263.6-94.3,263.2-92.9,262.7z M-109.8,235.6c-6,6-6,15.6,0,21.6
	c6,6,15.6,6,21.6,0c6-6,6-15.6,0-21.6C-94.2,229.7-103.8,229.7-109.8,235.6z M-100.5,233.9c3.5-0.4,6.9,0.7,9.4,2.7
	c-2-1.3-4.5-2-7.2-1.9c-13.6,0.4-15.8,19.5-2.9,22.2c2.6,0.6,5.5,0,7.7-1.6c2.1-1.5,3.5-3.6,3.9-6.1c0.5-3.1-0.8-6.4-3.4-8.4
	c-5.5-4.3-12.3,0-12.3,5.6c0,2.6,1.4,4.8,3.8,5.8c2.8,1.2,6-0.2,6.9-3.1c1.2-4-3.5-6.6-5.5-3.6c-0.7,1,0.5,2.6,1.9,1.3
	c0.7-0.6,1.7,0.4,1.4,1.7c-0.5,1.6-2.3,2.3-3.8,1.6c-1.5-0.6-2.4-2-2.4-3.6c0-3.8,4.9-6.7,8.5-3.8c3.5,2.7,3.6,8-0.4,10.7
	c-1.7,1.2-4,1.7-6,1.3c-10.6-2.2-7.9-17.4,2.5-17.6c6.3-0.2,9.9,4.2,10.8,8.2c1.4,6.2-2.5,12.8-10.2,13.7c-6.9,0.8-13.2-4.2-14-11.1
	C-112.4,240.9-107.4,234.7-100.5,233.9z"/>
<path d="M-131.1,290.5l17.6,17.6l-3.1,3.1l-17.5-17.6C-133,292.7-132,291.7-131.1,290.5z M-159.7,276.3c-1.9,8.2,3.1,16.4,11.3,18.4
	c8.2,1.9,16.4-3.1,18.4-11.3c1.9-8.2-3.1-16.4-11.3-18.4C-149.5,263.1-157.7,268.1-159.7,276.3z M-152.6,269.9
	c2.8-2.2,6.2-3,9.4-2.6c-2.4,0-4.8,0.7-7.1,2.2c-11.4,7.4-3.3,24.9,9.2,20.4c2.5-0.9,4.6-2.9,5.7-5.4c1.1-2.4,1.1-4.9,0.2-7.2
	c-1.2-2.9-4.1-5-7.3-5.4c-6.9-0.8-10.4,6.5-7.5,11.2c1.4,2.2,3.7,3.3,6.3,2.9c3-0.5,5.1-3.3,4.3-6.3c-1.1-4-6.4-3.8-6.6-0.2
	c0,1.2,1.8,2,2.3,0.1c0.3-0.9,1.7-0.6,2,0.7c0.4,1.6-0.7,3.1-2.4,3.4c-1.6,0.3-3.1-0.4-3.9-1.8c-2-3.2,0.7-8.2,5.3-7.7
	c4.4,0.5,7.2,4.9,5.3,9.4c-0.9,1.9-2.5,3.5-4.4,4.2c-10.1,3.6-15.8-10.6-7.1-16.3c5.3-3.4,10.6-1.6,13.5,1.3
	c4.4,4.6,4.6,12.2-1.5,17c-5.5,4.3-13.4,3.4-17.7-2.1C-159.1,282.2-158.1,274.3-152.6,269.9z"/>
<path d="M-131.6,252.1l24.3,35.6l-3.5,2.6l-24.3-35.5C-133.8,254.1-132.6,253.2-131.6,252.1z M-158.2,234.4c-3,7.9,1,16.7,8.9,19.6
	c7.9,3,16.7-1,19.6-8.9c3-7.9-1-16.7-8.9-19.6C-146.4,222.6-155.2,226.6-158.2,234.4z M-150.4,229c3-1.8,6.5-2.2,9.7-1.4
	c-2.4-0.3-4.9,0.1-7.3,1.3c-12.3,6-6.4,24.3,6.5,21.4c2.6-0.6,4.9-2.3,6.4-4.7c1.3-2.2,1.7-4.8,1.1-7.1c-0.8-3-3.4-5.5-6.5-6.2
	c-6.8-1.7-11.1,5.1-8.9,10.2c1.1,2.4,3.3,3.8,5.8,3.7c3-0.1,5.4-2.6,5-5.7c-0.6-4.1-5.9-4.6-6.5-1c-0.2,1.2,1.5,2.2,2.3,0.4
	c0.4-0.9,1.8-0.4,1.9,1c0.2,1.7-1.1,3-2.8,3.1c-1.6,0-3-0.8-3.7-2.3c-1.6-3.5,1.7-8.1,6.2-7c4.3,1.1,6.5,5.8,4,9.9
	c-1.1,1.8-2.9,3.2-4.9,3.6c-10.5,2.3-14.4-12.6-5-17.1c5.6-2.7,10.8-0.3,13.2,3c3.8,5.1,3,12.7-3.6,16.7c-6,3.6-13.7,1.7-17.3-4.3
	C-158.3,240.3-156.4,232.6-150.4,229z"/>
<g>
	<g>
		<path d="M-101.5,309.4c0,0.3,0.3,0.5,0.6,0.4l2-0.2c0.3,0,0.5-0.3,0.4-0.6c0-0.3-0.3-0.5-0.6-0.4l-2,0.2
			C-101.3,308.8-101.5,309.1-101.5,309.4z"/>
		<path d="M-94.2,307.3c0.2,0,0.3,0.1,0.4,0.2c0.2,0.2,0.1,0.5-0.1,0.7l-1.6,1.2c-0.2,0.2-0.5,0.1-0.7-0.1c-0.2-0.2-0.1-0.5,0.1-0.7
			l0.6-0.4l0.4-0.3l0.6-0.4C-94.4,307.3-94.3,307.3-94.2,307.3C-94.2,307.3-94.2,307.3-94.2,307.3z"/>
		<path d="M-103.3,307.8c0.2,0.2,0.5,0.2,0.7,0l1.4-1.4c0.2-0.2,0.2-0.5,0-0.7c-0.2-0.2-0.5-0.2-0.7,0l-1.4,1.4
			C-103.5,307.3-103.5,307.6-103.3,307.8z"/>
		<path d="M-99,306.3c-0.1,0.3,0,0.5,0.3,0.6l1.9,0.7c0.3,0.1,0.5,0,0.6-0.3c0.1-0.3,0-0.5-0.3-0.6l-1.9-0.7
			C-98.6,305.9-98.9,306.1-99,306.3z"/>
		<path d="M-94.5,304c0.1,0,0.2,0,0.3,0.1l0.6,0.4l0.5,0.3l0.6,0.4c0.2,0.1,0.3,0.4,0.2,0.7c-0.1,0.2-0.5,0.3-0.7,0.2l-1.7-1.1
			c-0.2-0.1-0.3-0.5-0.2-0.7C-94.8,304.1-94.7,304-94.5,304C-94.5,304-94.5,304-94.5,304z"/>
		<path d="M-104,305c0.3,0,0.5,0.2,0.5,0.5c0,0.3-0.2,0.5-0.5,0.5l-2,0c-0.3,0-0.5-0.2-0.5-0.5c0-0.3,0.2-0.5,0.5-0.5l0.7,0l0.5,0
			L-104,305C-104,305-104,305-104,305z"/>
		<path d="M-90.1,302.2c-0.1-0.2-0.4-0.3-0.7-0.2l-1.7,1c-0.2,0.1-0.3,0.4-0.2,0.7c0.1,0.2,0.5,0.3,0.7,0.2l1.7-1
			C-90,302.7-89.9,302.4-90.1,302.2z"/>
		<path d="M-103.8,301.1c-0.2-0.2-0.5-0.1-0.7,0.1l-1.2,1.6c-0.2,0.2-0.1,0.5,0.1,0.7c0.2,0.2,0.5,0.1,0.7-0.1l1.2-1.6
			C-103.5,301.6-103.6,301.3-103.8,301.1z"/>
		<path d="M-91.7,301.5c0.2-0.2,0.3-0.5,0.1-0.7l-1.2-1.6c-0.2-0.2-0.5-0.3-0.7-0.1c-0.2,0.2-0.3,0.5-0.1,0.7l1.2,1.6
			C-92.2,301.6-91.9,301.7-91.7,301.5z"/>
		<path d="M-107.7,298.7c-0.2,0.1-0.3,0.4-0.2,0.7l1,1.7c0.1,0.2,0.4,0.3,0.7,0.2c0.2-0.1,0.3-0.4,0.2-0.7l-1-1.7
			C-107.2,298.6-107.5,298.6-107.7,298.7z"/>
		<path d="M-105.6,296c-0.3,0.1-0.4,0.3-0.4,0.6l0.4,2c0.1,0.3,0.3,0.4,0.6,0.4c0.3-0.1,0.4-0.3,0.4-0.6l-0.4-2
			C-105.1,296.1-105.3,296-105.6,296z"/>
		<path d="M-90.4,298.4c0.1-0.3,0-0.5-0.3-0.6l-1.9-0.7c-0.3-0.1-0.5,0-0.6,0.3c-0.1,0.3,0,0.5,0.3,0.6l1.9,0.7
			C-90.7,298.8-90.5,298.7-90.4,298.4z"/>
		<path d="M-92.4,295c-0.1-0.2-0.4-0.3-0.7-0.2l-1.7,1.1c-0.2,0.1-0.3,0.4-0.2,0.7c0.1,0.2,0.5,0.3,0.7,0.2l1.7-1.1
			C-92.3,295.6-92.2,295.2-92.4,295z"/>
		<path d="M-101.8,296.3c0.2-0.2,0.1-0.5-0.1-0.7l-1.6-1.2c-0.2-0.2-0.5-0.1-0.7,0.1c-0.2,0.2-0.1,0.5,0.1,0.7l1.6,1.2
			C-102.3,296.6-101.9,296.5-101.8,296.3z"/>
		<path d="M-97,295.5c0-0.3-0.2-0.5-0.5-0.5l-2,0c-0.3,0-0.5,0.2-0.5,0.5c0,0.3,0.2,0.5,0.5,0.5l2,0C-97.2,296-97,295.8-97,295.5z"
			/>
		<path d="M-94.6,294.1c0.1-0.3,0-0.5-0.3-0.6l-1.9-0.7c-0.3-0.1-0.5,0-0.6,0.3c-0.1,0.3,0,0.5,0.3,0.6l1.9,0.7
			C-95,294.5-94.7,294.4-94.6,294.1z"/>
		<path d="M-99.2,292.5c-0.1-0.3-0.4-0.4-0.6-0.3l-1.9,0.7c-0.3,0.1-0.4,0.4-0.3,0.6c0.1,0.3,0.4,0.4,0.6,0.3l1.9-0.7
			C-99.2,293-99.1,292.7-99.2,292.5z"/>
	</g>
	<path d="M-99,297c-2.2,0-4,1.8-4,4s1.8,4,4,4s4-1.8,4-4S-96.8,297-99,297z M-99,303c-1.1,0-2-0.9-2-2s0.9-2,2-2s2,0.9,2,2
		S-97.9,303-99,303z"/>
	<path d="M-99,289c-6.6,0-12,5.4-12,12s5.4,12,12,12s12-5.4,12-12S-92.4,289-99,289z M-99,311c-5.5,0-10-4.5-10-10s4.5-10,10-10
		s10,4.5,10,10S-93.5,311-99,311z"/>
</g>
</svg>
