<?xml version="1.0" encoding="utf-8"?>
<!-- Generator: Adobe Illustrator 19.0.0, SVG Export Plug-In . SVG Version: 6.00 Build 0)  -->
<svg version="1.1" id="Layer_1" xmlns="http://www.w3.org/2000/svg" xmlns:xlink="http://www.w3.org/1999/xlink" x="0px" y="0px"
	 viewBox="-199 201 200 200" style="enable-background:new -199 201 200 200;" xml:space="preserve">
<style type="text/css">
	.st0{fill:none;stroke:#000000;stroke-miterlimit:10;}
</style>
<line id="XMLID_14_" class="st0" x1="-185.3" y1="384.8" x2="-121.7" y2="321.2"/>
<line id="XMLID_18_" class="st0" x1="-76.3" y1="280.8" x2="-12.7" y2="217.2"/>
<g>
	<path d="M-126.2,243.4c1.7-0.8,3.1-1.5,4.5-2.1c0.3-0.1,1.1,0.2,1.2,0.6c1.9,3.6,3.7,7.3,5.6,11c0.5,0.9,0.2,1.4-0.7,1.7
		c-1,0.4-2,0.9-2.9,1.4c-0.6,0.3-1.1,0.4-1.5-0.4C-122,251.7-124,247.7-126.2,243.4z"/>
	<path d="M-155.9,248.4c0.3,0.1,0.7,0.1,1,0.3c3.3,2.8,6.5,5.6,9.7,8.4c0.2,0.2,0.3,1,0.1,1.2c-0.7,1-1.6,2-2.5,2.9
		c-0.3,0.3-1.2,0.3-1.5,0.1c-3.2-2.7-6.4-5.5-9.6-8.3c-0.3-0.2-0.4-1-0.3-1.2C-158,250.6-157,249.6-155.9,248.4z"/>
	<path d="M-133.3,275.1c0.1-0.3,0.2-0.8,0.4-1.1c0.7-1,1.6-1.8,2.3-2.8c0.5-0.6,0.8-0.5,1.3-0.1c3.2,2.8,6.5,5.5,9.7,8.3
		c0.6,0.5,0.4,1,0,1.5c-0.8,0.9-1.6,2-2.5,2.8c-0.2,0.2-1,0.3-1.2,0.2c-3.3-2.8-6.5-5.6-9.7-8.4C-132.9,275.4-133,275.4-133.3,275.1
		z"/>
	<path d="M-131.9,268.6c-0.1,0.3-0.2,0.7-0.4,1c-0.8,1-1.7,1.9-2.6,2.8c-0.2,0.2-0.9,0.2-1.2,0c-3.2-2.6-6.3-5.3-9.5-8
		c-0.8-0.7-0.9-1.2-0.1-2c0.8-0.7,1.4-1.6,2.1-2.5c0.5-0.6,1-0.8,1.6-0.2c3.2,2.8,6.4,5.6,9.7,8.4
		C-132.1,268.3-132.1,268.4-131.9,268.6z"/>
	<path d="M-111.6,271.5c-1.8-3.5-3.6-6.9-5.4-10.4c-1.3-2.5-1.2-2.5,1.2-3.8c2.6-1.4,2.6-1.4,4,1.4c1.5,3.1,3.1,6.1,4.7,9.1
		c0.5,1,0.4,1.5-0.6,1.9C-109,270.2-110.2,270.9-111.6,271.5z"/>
	<path d="M-104.9,272.5c1.9,3.7,3.8,7.3,5.7,10.9c0.3,0.7,0.3,1.1-0.4,1.4c-1.1,0.6-2.2,1.2-3.4,1.7c-0.3,0.1-1.1-0.1-1.3-0.5
		c-1.9-3.8-3.8-7.6-5.7-11.4c-0.4-0.8,0-1.1,0.6-1.3c0.9-0.4,1.9-0.8,2.7-1.3C-105.7,271.3-105.2,271.5-104.9,272.5z"/>
	<path d="M-124.4,293.6c0.5,0.3,1,0.5,1.3,0.8c2.8,2,5.6,4,8.4,6c0.9,0.6,1.1,1.2,0.2,2.1c-0.6,0.7-1,1.5-1.6,2.2
		c-0.3,0.3-1.1,0.5-1.3,0.3c-3.1-2.1-6.1-4.3-9.1-6.6c-0.3-0.2-0.4-1.1-0.2-1.5C-126,295.7-125.2,294.7-124.4,293.6z"/>
	<path d="M-136.9,284.9c0.2,0.1,0.6,0.1,0.8,0.2c3,2.1,6.1,4.3,9.1,6.5c0.3,0.2,0.3,0.9,0.3,1.4c0,0.1-0.1,0.2-0.2,0.3
		c-2.7,3.7-1.6,3.6-5.2,1c-2.3-1.6-4.5-3.2-6.8-4.8c-0.9-0.6-1-1.1-0.2-1.9C-138.3,286.9-137.7,285.9-136.9,284.9z"/>
	<path d="M-141.3,287.8c-0.4-0.3-0.7-0.6-1.1-0.8c-2.9-2.1-5.9-4.2-8.7-6.3c-1.1-0.8-0.9-1.2,0.9-3.7c0.6-0.9,1.2-1.3,2.2-0.5
		c2.8,2.1,5.7,4.1,8.5,6.1c0.7,0.5,0.9,0.9,0.3,1.6c-0.7,0.9-1.3,1.9-2,2.8C-141.2,287.3-141.3,287.5-141.3,287.8z"/>
	<path d="M-104.8,250.8c1.8,2.8-0.1,9.2-3,10.6C-109.5,258.8-107.8,252.4-104.8,250.8z"/>
	<path d="M-136.9,251.3c2.5,1.5,3.3,8,1.3,10.8C-138.3,260.5-139.1,253.5-136.9,251.3z"/>
	<path d="M-131.7,261.8c-0.3,0.1-0.8,0.2-1.4,0.3c-0.1-0.5-0.3-1-0.3-1.5c0.4-2.5,1.6-4.4,3.9-5.6c1-0.5,1.4-0.1,1.3,0.9
		C-128.3,258.3-129.6,260.2-131.7,261.8z"/>
	<path d="M-105.4,262.4c0.5-3.1,4.1-5.7,7-5.1C-98.4,260.1-102.4,263-105.4,262.4z"/>
	<path d="M-139.6,291.8c0.5,2.2-1,5.7-2.9,6.7c-0.3,0.1-1-0.1-1.1-0.3C-144.3,296.2-141.9,292.2-139.6,291.8z"/>
	<path d="M-141.3,290.7c-1.8,1.8-4.9,1.8-6.6,0C-146.7,288.6-143,288.6-141.3,290.7z"/>
	<path d="M-132.6,264c1.7-1.4,4.9-1.4,6.4-0.2c0.2,0.2,0.3,0.9,0.1,1C-127.5,266-131.3,265.5-132.6,264z"/>
	<path d="M-99.3,267.3c-2.6,0.6-5.4-0.8-6.3-2.9C-103.7,263.3-100.2,264.9-99.3,267.3z"/>
</g>
<path d="M-35.1,346.9l2.6,1.1l0,0c-0.6,0.8-2.5,2.5-5.2,3c0.4,4.6-4.1,8.9-8.5,8.5c-0.8,3-2.4,4.9-3.2,5.5l-1.1-2.5l-1.6-0.2
	l-0.1-1.4l-1.4-0.2l-0.2-1.6l-2.6-1.2c0.6-0.8,2.5-2.5,5.5-3.2c-0.4-4.4,3.8-8.9,8.5-8.5l0,0c0.6-2.9,2.2-4.6,2.9-5.3l1.1,2.5
	l1.6,0.2l0.2,1.4l1.4,0.1C-35.3,345.3-35.1,346.9-35.1,346.9z M-42.9,356.7c-2.3-1.3-4.2-3-5.4-5.3c-0.7,1.3-0.9,3.1-0.2,5.1
	c-1.2,0.1-2.4,0.2-4.1,0.8l0.5,0.2l0.1,1.3l1.4,0.2l0.1,1.4l1.3,0.2l0.2,0.6c0.8-1.6,0.8-4.1,0.8-4.1
	C-46,357.6-44.3,357.4-42.9,356.7z M-40.7,354.5c-2.5-1.3-4.3-3.2-5.5-5.3c-0.6,0.3-1.1,0.7-1.5,1.2c1.1,2.4,3,4.3,5.7,5.6
	C-41.4,355.6-41,355.1-40.7,354.5z M-40.3,353.6c0.4-1.3,0.5-2.7,0-4.3c0,0,2.6-0.1,4.1-0.8l-0.6-0.2l-0.2-1.3l-1.4-0.1l-0.2-1.4
	l-1.3-0.1l-0.2-0.5c-0.7,1.6-0.8,4.1-0.8,4.1c-1.5-0.5-3.1-0.4-4.4,0C-44.1,350.9-42.4,352.5-40.3,353.6z"/>
</svg>
