<?xml version="1.0" encoding="utf-8"?>
<!-- Generator: Adobe Illustrator 19.0.0, SVG Export Plug-In . SVG Version: 6.00 Build 0)  -->
<svg version="1.1" id="Layer_1" xmlns="http://www.w3.org/2000/svg" xmlns:xlink="http://www.w3.org/1999/xlink" x="0px" y="0px"
	 viewBox="-199 201 200 200" style="enable-background:new -199 201 200 200;" xml:space="preserve">
<style type="text/css">
	.st0{fill:none;stroke:#000000;stroke-miterlimit:10;}
	.st1{fill:none;stroke:#000000;stroke-width:2;stroke-miterlimit:10;}
</style>
<line id="XMLID_14_" class="st0" x1="-185.3" y1="384.8" x2="-121.7" y2="321.2"/>
<line id="XMLID_18_" class="st0" x1="-76.3" y1="280.8" x2="-12.7" y2="217.2"/>
<path d="M-107.9,300c-0.1-0.3-0.1-0.6-0.1-1c-0.1-2.4,1.5-4.5,3.6-5.3c0.3-2.6,2.6-4.8,5.4-4.8c2.2,0,4.3,1.3,5.1,3.5l2.9-2.9
	l1.4,1.4l-5.9,5.9l0,0l-0.5,0.5l-1.4-1.4l1.9-1.9c-0.2-1.7-1.6-3.1-3.5-3.1c-1.7,0-3.2,1.3-3.5,2.8c1.3,0.3,3,1.4,3,3.7
	c-1-2.1-3.5-2.4-4.8-1.6c-1.3,0.7-1.7,1.8-1.7,3.1c0,0.4,0.1,0.7,0.2,1h13.6c0.1-0.4,0.2-0.8,0.2-1.3c0-0.9-0.4-1.7-0.9-2.3l1.4-1.4
	c1,1,1.6,2.3,1.6,3.8c0,0.4,0,0.8-0.1,1.1h1.1c0,4-2.2,7.7-7.1,9.2c0.1,0.6,1,1.6,1.5,1.8h0.5c0.6,0,1,0.4,1,1c0,0.5-0.4,1-1,1h-10
	c-0.6,0-1-0.5-1-1c0-0.6,0.4-1,1-1h0.5c0.6-0.2,1.4-1.2,1.5-1.8c-4.9-1.5-7.1-5.3-7.1-9.2C-109,300-107.9,300-107.9,300z M-91.2,302
	h-15.6l0,0c1,3.4,3.6,5,7,5.7c0.1,0.8,0,2.5-0.9,3.3h3.5c-0.9-0.8-1-2.5-0.9-3.3C-94.8,307-92.2,305.5-91.2,302L-91.2,302z"/>
<g>
	<path class="st1" d="M-172.7,359c0,0,1.7-67,2.7-66.7c1,0.3,18.3,3.2,18.3,3.2l5.3-63.6l80.3,24.8"/>
	<polyline class="st1" points="-121.6,239.6 -123.4,249.8 -137.9,248.8 -139.4,259.3 -148.4,255.8 	"/>
	<path d="M-66.3,228.7c-0.2-8.1-6.8-14.7-15-14.7c-8.3,0-15,6.7-15,15c0,1.2,0.1,2.3,0.4,3.5c-6.2,0.6-11.5,5-13.1,11.1l1.9,0.5
		c1.5-5.7,6.7-9.7,12.6-9.7c2.3,0,4.6,0.6,6.7,1.8c0,0-1.2-3.8-6-3.8c-0.3-1.1-0.5-2.3-0.5-3.4c0-7.2,5.8-13,13-13s13,5.8,13,13
		c0,0.1,0,0.1,0,0.2c0,0.1,0,0.2,0,0.2l0,0.8l0.8,0.2c5.8,1.5,9.8,6.7,9.8,12.6c0,5.6-3.6,10.9-8.9,12.7l0.3,2
		c6.2-2,10.6-8.2,10.6-14.7C-55.7,236.4-60,230.6-66.3,228.7z"/>
</g>
</svg>
