<?xml version="1.0" encoding="utf-8"?>
<!-- Generator: Adobe Illustrator 19.0.0, SVG Export Plug-In . SVG Version: 6.00 Build 0)  -->
<svg version="1.1" id="Layer_1" xmlns="http://www.w3.org/2000/svg" xmlns:xlink="http://www.w3.org/1999/xlink" x="0px" y="0px"
	 viewBox="-199 201 200 200" style="enable-background:new -199 201 200 200;" xml:space="preserve">
<style type="text/css">
	.st0{fill:none;stroke:#000000;stroke-miterlimit:10;}
</style>
<line id="XMLID_14_" class="st0" x1="-185.3" y1="384.8" x2="-121.7" y2="321.2"/>
<line id="XMLID_18_" class="st0" x1="-76.3" y1="280.8" x2="-12.7" y2="217.2"/>
<path d="M-42.2,355.3l-9.6,0.3l-4.5-4.5l2.1-2.1l3.5,3.5l5.7-5.7l-3.5-3.5l2.1-2.1l4.5,4.5C-41.8,345.8-42.2,355.3-42.2,355.3z
	 M-40.2,357.3l0.4-12.3l-6.5-6.5l-4.9,4.9l3.5,3.5l-2.8,2.8l-3.5-3.5l-4.9,4.9l6.5,6.5L-40.2,357.3z M-52.7,361.7l16.4-0.6l0.6-16.4
	l-2-0.1l-0.5,14.5l-14.5,0.5C-52.8,359.7-52.7,361.7-52.7,361.7z"/>
<path d="M-143.8,258.2l9.6-0.3l4.5,4.5l-2.1,2.1l-3.5-3.5l-5.7,5.7l3.5,3.5l-2.1,2.1l-4.5-4.5C-144.2,267.7-143.8,258.2-143.8,258.2
	z M-145.8,256.2l-0.4,12.3l6.5,6.5l4.9-4.9l-3.5-3.5l2.8-2.8l3.5,3.5l4.9-4.9l-6.5-6.5L-145.8,256.2z M-133.3,251.8l-16.4,0.6
	l-0.6,16.4l2,0.1l0.5-14.5l14.5-0.5C-133.2,253.8-133.3,251.8-133.3,251.8z"/>
<path d="M-91.5,299.5l1,0.1v8l-1-0.3v5.6h-15v-6.4l-1,0.3v-9.2l1,0.1V289h15C-91.5,289-91.5,299.5-91.5,299.5z M-104.5,297
	 M-93.5,299.3c0,0,0-8.3,0-8.3h-11v7 M-104.5,306v5h11v-4.2l-6.6-1.9C-100.1,304.8-104.5,306-104.5,306z M-105.5,304.2l5.5-1.5
	l7.5,2.2v-3.5l-13-1.5C-105.5,299.9-105.5,304.2-105.5,304.2z"/>
</svg>
