<?xml version="1.0" encoding="utf-8"?>
<!-- Generator: Adobe Illustrator 19.0.0, SVG Export Plug-In . SVG Version: 6.00 Build 0)  -->
<svg version="1.1" id="Layer_1" xmlns="http://www.w3.org/2000/svg" xmlns:xlink="http://www.w3.org/1999/xlink" x="0px" y="0px"
	 viewBox="-199 201 200 200" style="enable-background:new -199 201 200 200;" xml:space="preserve">
<style type="text/css">
	.st0{fill:none;stroke:#000000;stroke-miterlimit:10;}
	.st1{fill:#FFFFFF;stroke:#000000;stroke-width:2;stroke-miterlimit:10;}
</style>
<line id="XMLID_14_" class="st0" x1="-185.3" y1="384.8" x2="-121.7" y2="321.2"/>
<line id="XMLID_18_" class="st0" x1="-76.3" y1="280.8" x2="-12.7" y2="217.2"/>
<g>
	<path class="st1" d="M-90.1,352.6c-2.7,0-5.1-1.8-5.8-4.5l-13-49.5c-0.8-2.9-2.6-5.3-5.1-6.8c-2.6-1.5-5.5-1.9-8.4-1.2
		c-2.9,0.7-5.3,2.6-6.8,5.1c-1.5,2.6-1.9,5.5-1.2,8.4c0.8,3.2-1.1,6.5-4.3,7.3c-3.2,0.8-6.5-1.1-7.3-4.3c-1.6-6-0.7-12.2,2.4-17.5
		c3.1-5.3,8.1-9.1,14.1-10.7c5.9-1.6,12.2-0.7,17.5,2.4c5.3,3.1,9.1,8.1,10.7,14l13,49.5c0.8,3.2-1.1,6.5-4.3,7.3
		C-89.1,352.6-89.6,352.6-90.1,352.6z"/>
</g>
<g>
	<path class="st1" d="M-110.4,331.9c-2.2-1.4-3.3-4.3-2.4-6.9l16.1-48.6c0.9-2.8,0.7-5.8-0.6-8.5c-1.3-2.6-3.6-4.6-6.4-5.5
		c-2.8-0.9-5.8-0.7-8.5,0.6c-2.6,1.3-4.6,3.6-5.5,6.4c-1,3.1-4.4,4.8-7.6,3.8c-3.1-1.1-4.8-4.4-3.8-7.6c1.9-5.8,6-10.6,11.5-13.3
		c5.5-2.8,11.7-3.2,17.6-1.3c5.8,1.9,10.6,6,13.3,11.5c2.8,5.5,3.2,11.7,1.3,17.6l-16.1,48.6c-1,3.1-4.4,4.8-7.6,3.8
		C-109.5,332.4-110,332.1-110.4,331.9z"/>
</g>
<path d="M-30.9,370.1l1.5,8.9l-7.4-4.6l-7.4,4.6l1.5-8.9l-6.1-5.6l8.3-1.4l3.7-8.2l3.7,8.2l8.3,1.4
	C-24.9,364.5-30.9,370.1-30.9,370.1z M-32.1,375l-0.9-5.6l3.9-3.6l-5.4-0.9l-2.3-5.1l-2.3,5.1l-5.4,0.9l3.9,3.6l-0.9,5.6l4.7-2.9
	C-36.9,372.1-32.1,375-32.1,375z"/>
<polygon points="-155.6,226.5 -155.1,229.7 -157.8,228 -160.5,229.7 -160,226.5 -162.2,224.5 -159.1,224 -157.8,221.2 -156.6,224 
	-153.4,224.5 "/>
</svg>
