<?xml version="1.0" encoding="utf-8"?>
<!-- Generator: Adobe Illustrator 19.0.0, SVG Export Plug-In . SVG Version: 6.00 Build 0)  -->
<svg version="1.1" id="Layer_1" xmlns="http://www.w3.org/2000/svg" xmlns:xlink="http://www.w3.org/1999/xlink" x="0px" y="0px"
	 viewBox="-199 201 200 200" style="enable-background:new -199 201 200 200;" xml:space="preserve">
<style type="text/css">
	.st0{fill:none;stroke:#000000;stroke-miterlimit:10;}
</style>
<line id="XMLID_14_" class="st0" x1="-185.3" y1="384.8" x2="-121.7" y2="321.2"/>
<line id="XMLID_18_" class="st0" x1="-76.3" y1="280.8" x2="-12.7" y2="217.2"/>
<path d="M-93.2,307.2l8.9-26.7c2-6.1,1.5-12.6-1.3-18.4c-2.9-5.7-7.8-10-13.9-12c-6.1-2-12.6-1.6-18.4,1.3c-5.7,2.9-10,7.8-12,13.9
	c-1.2,3.6,0.8,7.6,4.4,8.8c3.7,1.2,7.6-0.8,8.8-4.4c0.8-2.6,2.6-4.6,5-5.8c2.4-1.2,5.1-1.4,7.7-0.6c2.6,0.9,4.6,2.6,5.8,5
	c1.2,2.4,1.4,5.1,0.6,7.7l-3.4,10.2c-1.8-2.2-3.9-4.1-6.5-5.6c-5.5-3.2-12-4.1-18.2-2.5c-6.2,1.6-11.4,5.6-14.7,11.1
	c-3.2,5.5-4.1,12-2.5,18.2c1,3.7,4.8,5.9,8.5,5c3.7-1,6-4.8,5-8.5c-0.7-2.6-0.3-5.3,1-7.6c1.4-2.3,3.5-4,6.1-4.7
	c2.6-0.7,5.3-0.3,7.6,1c2.3,1.4,4,3.5,4.7,6.1l2.1,7.8l-5.9,17.9c-1,3,0.2,6.3,2.8,8l0,0c0.5,0.3,1,0.6,1.6,0.8
	c0.7,0.2,1.5,0.4,2.2,0.4c2.2,0,4.4-1.1,5.7-2.9l4.6,17.5c0.8,3.1,3.6,5.2,6.8,5.2c0.6,0,1.2-0.1,1.8-0.2c3.7-1,6-4.8,5-8.5
	L-93.2,307.2z M-107.9,298.4c-0.8-3.1-2.8-5.7-5.6-7.4c-1.9-1.1-4-1.7-6.1-1.7c-1,0-2.1,0.1-3.1,0.4c-3.1,0.8-5.7,2.8-7.4,5.6
	c-1.6,2.8-2.1,6-1.3,9.2c0.7,2.7-0.9,5.4-3.5,6.1c-2.7,0.7-5.4-0.9-6.1-3.6c-1.5-5.7-0.7-11.6,2.3-16.7c3-5.1,7.7-8.7,13.4-10.2
	c5.7-1.5,11.6-0.7,16.7,2.3c2.7,1.6,5,3.7,6.7,6.1l-4.9,14.7L-107.9,298.4z M-102.4,328.4c-0.9,2.6-3.7,4-6.3,3.2
	c-0.4-0.1-0.8-0.3-1.2-0.6c-1.9-1.2-2.7-3.6-2-5.7l16.1-48.6c1-3.1,0.8-6.3-0.7-9.2c-1.4-2.9-3.9-5-7-6c-3.1-1-6.3-0.8-9.2,0.7
	c-2.9,1.4-5,3.9-6,7c-0.9,2.6-3.7,4-6.3,3.2c-2.6-0.9-4-3.7-3.2-6.3c1.9-5.6,5.8-10.1,11-12.8c5.3-2.6,11.2-3.1,16.8-1.2
	c5.6,1.8,10.1,5.8,12.8,11c2.6,5.3,3.1,11.2,1.2,16.8L-102.4,328.4z M-88.9,351.5c-0.4,0.1-0.9,0.2-1.3,0.2c-2.3,0-4.2-1.5-4.8-3.7
	l-5.2-19.9l5.8-17.4l9.1,34.7C-84.6,348-86.2,350.8-88.9,351.5z"/>
<path d="M-30.9,370.1l1.5,8.9l-7.4-4.6l-7.4,4.6l1.5-8.9l-6.1-5.6l8.3-1.4l3.7-8.2l3.7,8.2l8.3,1.4
	C-24.9,364.5-30.9,370.1-30.9,370.1z M-32.1,375l-0.9-5.6l3.9-3.6l-5.4-0.9l-2.3-5.1l-2.3,5.1l-5.4,0.9l3.9,3.6l-0.9,5.6l4.7-2.9
	C-36.9,372.1-32.1,375-32.1,375z"/>
<polygon points="-155.6,226.5 -155.1,229.7 -157.8,228 -160.5,229.7 -160,226.5 -162.2,224.5 -159.1,224 -157.8,221.2 -156.6,224 
	-153.4,224.5 "/>
</svg>
