<?xml version="1.0" encoding="utf-8"?>
<!-- Generator: Adobe Illustrator 19.0.0, SVG Export Plug-In . SVG Version: 6.00 Build 0)  -->
<svg version="1.1" id="Layer_1" xmlns="http://www.w3.org/2000/svg" xmlns:xlink="http://www.w3.org/1999/xlink" x="0px" y="0px"
	 viewBox="0 0 200 200" style="enable-background:new 0 0 200 200;" xml:space="preserve">
<style type="text/css">
	.st0{fill:none;stroke:#000000;stroke-miterlimit:10;}
</style>
<path d="M105.9,91.5l4.1,3.4v5.1l-10,8.3l-10-8.3v-5.1l4.1-3.4l5.9,3.9C100,95.4,105.9,91.5,105.9,91.5z M106,89l-6,4l-6-4l-6,5v7
	l12,10l12-10v-7L106,89z"/>
<line id="XMLID_14_" class="st0" x1="13.7" y1="183.8" x2="77.3" y2="120.2"/>
<line id="XMLID_18_" class="st0" x1="122.7" y1="79.8" x2="186.3" y2="16.2"/>
<g id="XMLID_29_">
	<g id="XMLID_42_">
		<path id="XMLID_17_" d="M51.5,100c0,9.4,2.7,18.1,7.3,25.6l1.5-1.4c-4.3-7-6.8-15.3-6.8-24.1c0-25.6,20.9-46.5,46.5-46.5
			c9.3,0,18,2.8,25.3,7.5l1.5-1.4c-7.7-5.1-16.9-8.1-26.8-8.1C73.3,51.5,51.5,73.3,51.5,100z"/>
		<path id="XMLID_20_" d="M40.5,100c0,12.4,3.8,23.9,10.3,33.4l1.5-1.4c-6.1-9.1-9.7-20.1-9.7-32c0-31.7,25.8-57.5,57.5-57.5
			c12.4,0,23.9,4,33.3,10.7l1.5-1.4C125,44.7,113,40.5,100,40.5C67.2,40.5,40.5,67.2,40.5,100z"/>
		<path id="XMLID_21_" d="M29.5,100c0,15.3,4.9,29.5,13.3,41.1l1.5-1.4c-8-11.2-12.7-24.9-12.7-39.7c0-37.8,30.7-68.5,68.5-68.5
			c15.5,0,29.8,5.2,41.3,13.9l1.4-1.4c-11.9-9.1-26.7-14.5-42.8-14.5C61.1,29.5,29.5,61.1,29.5,100z"/>
		<path id="XMLID_24_" d="M20.5,100c0-43.8,35.7-79.5,79.5-79.5c18.6,0,35.7,6.4,49.3,17.2l1.4-1.4c-13.9-11.1-31.6-17.8-50.7-17.8
			c-44.9,0-81.5,36.6-81.5,81.5c0,18.3,6.1,35.2,16.3,48.9l1.4-1.4C26.4,134.2,20.5,117.8,20.5,100z"/>
		<path id="XMLID_25_" d="M9.5,100C9.5,50.1,50.1,9.5,100,9.5c21.7,0,41.6,7.7,57.3,20.5l1.4-1.4c-16-13.2-36.4-21.1-58.7-21.1
			C49,7.5,7.5,49,7.5,100c0,21.3,7.2,40.9,19.4,56.6l1.4-1.4C16.5,139.9,9.5,120.8,9.5,100z"/>
	</g>
</g>
</svg>
